<svg width="257" height="49" viewBox="0 0 257 49" fill="none" xmlns="http://www.w3.org/2000/svg">
<path d="M0 24.5C0 10.969 10.969 0 24.5 0H232.5C246.031 0 257 10.969 257 24.5V24.5C257 38.031 246.031 49 232.5 49H24.5C10.969 49 0 38.031 0 24.5V24.5Z" fill="white"/>
<path d="M38.6 16H19.4C18.08 16 17.012 16.9562 17.012 18.125L17 30.875C17 32.0438 18.08 33 19.4 33H38.6C39.92 33 41 32.0438 41 30.875V18.125C41 16.9562 39.92 16 38.6 16ZM38.6 30.875H19.4V20.25L29 25.5625L38.6 20.25V30.875ZM29 23.4375L19.4 18.125H38.6L29 23.4375Z" fill="#005ECE"/>
<path d="M57.7356 32.315C56.1956 32.315 54.8306 32.007 53.6406 31.391C52.4506 30.761 51.5266 29.872 50.8686 28.724C50.2106 27.562 49.8816 26.211 49.8816 24.671C49.8816 23.131 50.2106 21.787 50.8686 20.639C51.5266 19.477 52.4506 18.581 53.6406 17.951C54.8306 17.321 56.1956 17.006 57.7356 17.006C58.7856 17.006 59.7236 17.118 60.5496 17.342C61.3756 17.566 62.1246 17.923 62.7966 18.413V20.954C62.1806 20.422 61.4736 20.037 60.6756 19.799C59.8776 19.561 58.9746 19.442 57.9666 19.442C56.9586 19.442 56.0416 19.659 55.2156 20.093C54.4036 20.513 53.7596 21.122 53.2836 21.92C52.8076 22.704 52.5696 23.621 52.5696 24.671C52.5696 25.735 52.7936 26.666 53.2416 27.464C53.6896 28.248 54.3126 28.857 55.1106 29.291C55.9086 29.711 56.8186 29.921 57.8406 29.921C58.9186 29.921 59.8076 29.739 60.5076 29.375V26.078H58.0296V23.957H63.1746V30.803C61.8726 31.811 60.0596 32.315 57.7356 32.315ZM68.3723 17.321H78.3053V19.526H71.0393V23.558H76.4363V25.763H71.0393V29.795H78.3053V32H68.3723V17.321ZM86.8963 19.526H82.4653V17.321H93.9943V19.526H89.5633V32H86.8963V19.526ZM109.439 17.321H112.106V32H109.439V17.321ZM117.727 17.321H120.247L127.114 27.548V17.321H129.781V32H127.261L120.394 21.752V32H117.727V17.321ZM149.667 19.526H145.236V17.321H156.765V19.526H152.334V32H149.667V19.526ZM167.765 32.315C166.295 32.315 164.965 32 163.775 31.37C162.599 30.726 161.668 29.823 160.982 28.661C160.31 27.499 159.974 26.169 159.974 24.671C159.974 23.173 160.31 21.843 160.982 20.681C161.668 19.519 162.599 18.616 163.775 17.972C164.965 17.328 166.295 17.006 167.765 17.006C169.221 17.006 170.537 17.328 171.713 17.972C172.903 18.616 173.834 19.519 174.506 20.681C175.192 21.843 175.535 23.173 175.535 24.671C175.535 26.169 175.192 27.499 174.506 28.661C173.834 29.809 172.903 30.705 171.713 31.349C170.537 31.993 169.221 32.315 167.765 32.315ZM167.765 29.9C168.703 29.9 169.557 29.69 170.327 29.27C171.097 28.836 171.706 28.227 172.154 27.443C172.616 26.645 172.847 25.721 172.847 24.671C172.847 23.635 172.623 22.725 172.175 21.941C171.727 21.143 171.118 20.527 170.348 20.093C169.578 19.659 168.717 19.442 167.765 19.442C166.813 19.442 165.945 19.659 165.161 20.093C164.391 20.527 163.782 21.143 163.334 21.941C162.886 22.725 162.662 23.635 162.662 24.671C162.662 25.721 162.886 26.645 163.334 27.443C163.796 28.227 164.412 28.836 165.182 29.27C165.966 29.69 166.827 29.9 167.765 29.9ZM186.915 32.315C184.843 32.315 183.275 31.776 182.211 30.698C181.161 29.606 180.636 28.136 180.636 26.288V17.321H183.303V26.33C183.303 27.492 183.625 28.381 184.269 28.997C184.927 29.599 185.809 29.9 186.915 29.9C188.007 29.9 188.875 29.599 189.519 28.997C190.177 28.381 190.506 27.492 190.506 26.33V17.321H193.173V26.288C193.173 28.136 192.648 29.606 191.598 30.698C190.548 31.776 188.987 32.315 186.915 32.315ZM206.122 32.315C204.582 32.315 203.217 32.007 202.027 31.391C200.837 30.761 199.913 29.872 199.255 28.724C198.597 27.562 198.268 26.211 198.268 24.671C198.268 23.131 198.597 21.787 199.255 20.639C199.913 19.477 200.837 18.581 202.027 17.951C203.217 17.321 204.582 17.006 206.122 17.006C208.152 17.006 209.846 17.489 211.204 18.455V20.996C209.986 19.96 208.369 19.442 206.353 19.442C205.275 19.442 204.33 19.659 203.518 20.093C202.706 20.513 202.076 21.115 201.628 21.899C201.18 22.683 200.956 23.607 200.956 24.671C200.956 25.735 201.18 26.659 201.628 27.443C202.09 28.227 202.727 28.836 203.539 29.27C204.351 29.69 205.289 29.9 206.353 29.9C207.389 29.9 208.313 29.774 209.125 29.522C209.937 29.256 210.686 28.836 211.372 28.262V30.803C210.084 31.811 208.334 32.315 206.122 32.315ZM216.574 17.321H219.241V23.411H226.297V17.321H228.943V32H226.297V25.616H219.241V32H216.574V17.321ZM234.374 17.321H236.915V27.611H234.374V17.321ZM235.634 32.315C235.214 32.315 234.857 32.175 234.563 31.895C234.283 31.601 234.143 31.251 234.143 30.845C234.143 30.425 234.283 30.075 234.563 29.795C234.857 29.515 235.214 29.375 235.634 29.375C236.054 29.375 236.404 29.515 236.684 29.795C236.978 30.075 237.125 30.425 237.125 30.845C237.125 31.251 236.978 31.601 236.684 31.895C236.39 32.175 236.04 32.315 235.634 32.315Z" fill="#005ECE"/>
</svg>
