<svg id="Capa_1" data-name="Capa 1" xmlns="http://www.w3.org/2000/svg" viewBox="0 0 825.29 336.56"><defs><style>.cls-1{fill:#fefefe;}</style></defs><path class="cls-1" d="M791.2,32.3H212.88a34.09,34.09,0,0,0-34.09,34.09v31.7c-8-5-16.62-9.16-23.4-15.92-14.32-14.25-30.91-25.62-47-37.65a14.89,14.89,0,0,0-2.09-1.35C94.89,36.54,84.28,28.66,72.9,22c-8.13-4.79-16.55-8.88-25-13C39.13,5.4,30.43,1.64,21,.33,13.43-.71,6.69.46,2.23,7.52c-2.3,5.75-1.48,11.72-1,17.59.43,5.25,1,10.49,1.77,15.71,2.27,14.32,4.57,28.64,8.2,42.7a178.74,178.74,0,0,0,16.06,41.4c11,18.47,26.56,31.92,45.51,41.68a37.89,37.89,0,0,1,3.87,2.21c6.15,3.6,12.75,6.36,18.79,10.17.94.59,2.47.84,2.36,2.25s-1.62,1.48-2.64,1.92c-8.68,3.72-17.62,6.78-26.12,10.92-10.72,5.22-20.36,11.75-27.61,21.41C30.65,229.22,24.25,245.2,18,261.27c-.6,1.54-1.07,3.13-1.79,4.63-5.8,15.7-10.3,31.81-14.82,47.91C.89,316.91.08,320,0,323.14c-.22,9.55,4.5,14.14,14.09,13.33a75.53,75.53,0,0,0,18.88-4A332.78,332.78,0,0,0,78,312.8c24.6-12.59,48.83-25.92,73.7-38,7.15-3.47,14.6-6.26,22-9.06,1.85-.69,3.76-1.32,5.08-2.95v39.68a34.08,34.08,0,0,0,34.09,34.08H791.2a34.08,34.08,0,0,0,34.09-34.08V66.39A34.09,34.09,0,0,0,791.2,32.3Z"/></svg>