<svg width="656" height="268" viewBox="0 0 656 268" fill="none" xmlns="http://www.w3.org/2000/svg">
<path d="M655.446 55C655.446 39.536 642.91 27 627.446 27H174.446C158.982 27 146.446 39.536 146.446 55V239C146.446 254.464 158.982 267 174.446 267H627.446C642.91 267 655.446 254.464 655.446 239V55Z" fill="#FFFFFF"/>
<path d="M655.446 55C655.446 39.536 642.91 27 627.446 27H174.446C158.982 27 146.446 39.536 146.446 55V239C146.446 254.464 158.982 267 174.446 267H627.446C642.91 267 655.446 254.464 655.446 239V55Z" fill="#FFFFFF" fill-opacity="0.11"/>
<g clip-path="url(#clip0_0_1)">
<path d="M433.412 219.373L436.386 228H438.183L434.437 218.047H433.289L433.412 219.373ZM430.924 228L433.904 219.373L434.034 218.047H432.879L429.119 228H430.924ZM431.067 224.309V225.669H436.481V224.309H431.067ZM425.047 226.824C424.778 226.824 424.537 226.772 424.323 226.667C424.104 226.558 423.929 226.407 423.796 226.216C423.66 226.024 423.584 225.803 423.571 225.553H422.019C422.028 226.031 422.169 226.466 422.443 226.858C422.716 227.25 423.079 227.562 423.53 227.795C423.981 228.023 424.48 228.137 425.027 228.137C425.592 228.137 426.084 228.041 426.503 227.85C426.923 227.654 427.271 227.385 427.549 227.043C427.827 226.701 428.037 226.307 428.178 225.86C428.315 225.414 428.383 224.935 428.383 224.425V224.186C428.383 223.675 428.315 223.197 428.178 222.75C428.037 222.299 427.827 221.902 427.549 221.561C427.271 221.219 426.923 220.952 426.503 220.761C426.084 220.565 425.594 220.467 425.034 220.467C424.441 220.467 423.922 220.585 423.475 220.822C423.028 221.055 422.678 221.381 422.422 221.8C422.163 222.215 422.028 222.698 422.019 223.249H423.571C423.584 222.976 423.653 222.729 423.776 222.511C423.894 222.287 424.063 222.11 424.282 221.978C424.496 221.845 424.753 221.779 425.054 221.779C425.387 221.779 425.663 221.848 425.881 221.984C426.1 222.117 426.271 222.299 426.394 222.531C426.517 222.759 426.606 223.017 426.661 223.304C426.711 223.586 426.736 223.88 426.736 224.186V224.425C426.736 224.73 426.711 225.026 426.661 225.313C426.611 225.601 426.524 225.858 426.401 226.086C426.273 226.309 426.1 226.489 425.881 226.626C425.663 226.758 425.385 226.824 425.047 226.824ZM417.264 220.604V221.807H421.434V220.604H417.264ZM420.231 218.792H418.583V225.956C418.583 226.184 418.551 226.359 418.487 226.482C418.419 226.601 418.326 226.681 418.207 226.722C418.089 226.763 417.95 226.783 417.79 226.783C417.676 226.783 417.567 226.776 417.462 226.763C417.357 226.749 417.273 226.735 417.209 226.722L417.202 227.979C417.339 228.021 417.498 228.057 417.681 228.089C417.858 228.121 418.064 228.137 418.296 228.137C418.674 228.137 419.009 228.071 419.301 227.938C419.593 227.802 419.82 227.581 419.984 227.275C420.149 226.97 420.231 226.564 420.231 226.059V218.792ZM414.129 220.604V228H415.783V220.604H414.129ZM415.892 218.662C415.892 218.411 415.81 218.204 415.646 218.04C415.478 217.871 415.245 217.787 414.949 217.787C414.657 217.787 414.427 217.871 414.258 218.04C414.09 218.204 414.006 218.411 414.006 218.662C414.006 218.908 414.09 219.113 414.258 219.277C414.427 219.441 414.657 219.523 414.949 219.523C415.245 219.523 415.478 219.441 415.646 219.277C415.81 219.113 415.892 218.908 415.892 218.662ZM412.538 224.384V224.227C412.538 223.693 412.461 223.199 412.306 222.743C412.151 222.283 411.928 221.884 411.636 221.547C411.34 221.205 410.98 220.941 410.556 220.754C410.128 220.562 409.644 220.467 409.107 220.467C408.564 220.467 408.081 220.562 407.658 220.754C407.229 220.941 406.867 221.205 406.571 221.547C406.274 221.884 406.049 222.283 405.894 222.743C405.739 223.199 405.661 223.693 405.661 224.227V224.384C405.661 224.917 405.739 225.411 405.894 225.867C406.049 226.323 406.274 226.722 406.571 227.063C406.867 227.401 407.227 227.665 407.651 227.856C408.075 228.043 408.555 228.137 409.093 228.137C409.635 228.137 410.121 228.043 410.549 227.856C410.973 227.665 411.333 227.401 411.629 227.063C411.925 226.722 412.151 226.323 412.306 225.867C412.461 225.411 412.538 224.917 412.538 224.384ZM410.891 224.227V224.384C410.891 224.716 410.857 225.031 410.788 225.327C410.72 225.623 410.613 225.883 410.467 226.106C410.321 226.33 410.134 226.505 409.907 226.633C409.679 226.76 409.408 226.824 409.093 226.824C408.788 226.824 408.523 226.76 408.3 226.633C408.072 226.505 407.885 226.33 407.74 226.106C407.594 225.883 407.487 225.623 407.418 225.327C407.345 225.031 407.309 224.716 407.309 224.384V224.227C407.309 223.898 407.345 223.589 407.418 223.297C407.487 223.001 407.596 222.739 407.746 222.511C407.892 222.283 408.079 222.105 408.307 221.978C408.53 221.845 408.797 221.779 409.107 221.779C409.417 221.779 409.686 221.845 409.913 221.978C410.137 222.105 410.321 222.283 410.467 222.511C410.613 222.739 410.72 223.001 410.788 223.297C410.857 223.589 410.891 223.898 410.891 224.227ZM402.547 222.183V228H404.194V220.604H402.642L402.547 222.183ZM402.841 224.028L403.374 224.021C403.369 223.497 403.296 223.017 403.155 222.579C403.009 222.142 402.809 221.766 402.554 221.451C402.294 221.137 401.984 220.895 401.624 220.727C401.264 220.553 400.863 220.467 400.421 220.467C400.065 220.467 399.744 220.517 399.457 220.617C399.165 220.713 398.917 220.87 398.712 221.089C398.502 221.308 398.343 221.592 398.233 221.943C398.124 222.29 398.069 222.716 398.069 223.222V228H399.724V223.215C399.724 222.859 399.776 222.579 399.881 222.374C399.981 222.164 400.129 222.016 400.325 221.93C400.517 221.839 400.756 221.793 401.043 221.793C401.325 221.793 401.578 221.852 401.802 221.971C402.025 222.089 402.214 222.251 402.369 222.456C402.519 222.661 402.636 222.898 402.718 223.167C402.8 223.436 402.841 223.723 402.841 224.028ZM386.125 226.688V228H392.797V226.872L389.557 223.338C389.201 222.937 388.921 222.59 388.716 222.299C388.511 222.007 388.367 221.745 388.285 221.513C388.199 221.276 388.155 221.046 388.155 220.822C388.155 220.508 388.215 220.232 388.333 219.995C388.447 219.754 388.616 219.564 388.839 219.428C389.062 219.286 389.333 219.216 389.652 219.216C390.022 219.216 390.331 219.296 390.582 219.455C390.833 219.615 391.022 219.836 391.15 220.118C391.277 220.396 391.341 220.715 391.341 221.075H392.988C392.988 220.496 392.856 219.968 392.592 219.489C392.328 219.006 391.945 218.623 391.443 218.341C390.942 218.054 390.338 217.91 389.632 217.91C388.967 217.91 388.401 218.022 387.937 218.245C387.472 218.468 387.119 218.785 386.877 219.195C386.631 219.605 386.508 220.091 386.508 220.651C386.508 220.961 386.558 221.269 386.658 221.574C386.759 221.88 386.902 222.185 387.089 222.49C387.271 222.791 387.488 223.094 387.738 223.399C387.989 223.7 388.265 224.006 388.566 224.315L390.719 226.688H386.125Z" fill="#FFFFFF"/>
<path d="M348.412 219.373L351.386 228H353.183L349.437 218.047H348.289L348.412 219.373ZM345.924 228L348.904 219.373L349.034 218.047H347.879L344.119 228H345.924ZM346.067 224.309V225.669H351.481V224.309H346.067ZM340.047 226.824C339.778 226.824 339.537 226.772 339.323 226.667C339.104 226.558 338.929 226.407 338.796 226.216C338.66 226.024 338.584 225.803 338.571 225.553H337.019C337.028 226.031 337.169 226.466 337.443 226.858C337.716 227.25 338.079 227.562 338.53 227.795C338.981 228.023 339.48 228.137 340.027 228.137C340.592 228.137 341.084 228.041 341.503 227.85C341.923 227.654 342.271 227.385 342.549 227.043C342.827 226.701 343.037 226.307 343.178 225.86C343.315 225.414 343.383 224.935 343.383 224.425V224.186C343.383 223.675 343.315 223.197 343.178 222.75C343.037 222.299 342.827 221.902 342.549 221.561C342.271 221.219 341.923 220.952 341.503 220.761C341.084 220.565 340.594 220.467 340.034 220.467C339.441 220.467 338.922 220.585 338.475 220.822C338.028 221.055 337.678 221.381 337.422 221.8C337.163 222.215 337.028 222.698 337.019 223.249H338.571C338.584 222.976 338.653 222.729 338.776 222.511C338.894 222.287 339.063 222.11 339.282 221.978C339.496 221.845 339.753 221.779 340.054 221.779C340.387 221.779 340.663 221.848 340.881 221.984C341.1 222.117 341.271 222.299 341.394 222.531C341.517 222.759 341.606 223.017 341.661 223.304C341.711 223.586 341.736 223.88 341.736 224.186V224.425C341.736 224.73 341.711 225.026 341.661 225.313C341.611 225.601 341.524 225.858 341.401 226.086C341.273 226.309 341.1 226.489 340.881 226.626C340.663 226.758 340.385 226.824 340.047 226.824ZM332.264 220.604V221.807H336.434V220.604H332.264ZM335.231 218.792H333.583V225.956C333.583 226.184 333.551 226.359 333.487 226.482C333.419 226.601 333.326 226.681 333.207 226.722C333.089 226.763 332.95 226.783 332.79 226.783C332.676 226.783 332.567 226.776 332.462 226.763C332.357 226.749 332.273 226.735 332.209 226.722L332.202 227.979C332.339 228.021 332.498 228.057 332.681 228.089C332.858 228.121 333.064 228.137 333.296 228.137C333.674 228.137 334.009 228.071 334.301 227.938C334.593 227.802 334.82 227.581 334.984 227.275C335.149 226.97 335.231 226.564 335.231 226.059V218.792ZM329.129 220.604V228H330.783V220.604H329.129ZM330.892 218.662C330.892 218.411 330.81 218.204 330.646 218.04C330.478 217.871 330.245 217.787 329.949 217.787C329.657 217.787 329.427 217.871 329.258 218.04C329.09 218.204 329.006 218.411 329.006 218.662C329.006 218.908 329.09 219.113 329.258 219.277C329.427 219.441 329.657 219.523 329.949 219.523C330.245 219.523 330.478 219.441 330.646 219.277C330.81 219.113 330.892 218.908 330.892 218.662ZM327.538 224.384V224.227C327.538 223.693 327.461 223.199 327.306 222.743C327.151 222.283 326.928 221.884 326.636 221.547C326.34 221.205 325.98 220.941 325.556 220.754C325.128 220.562 324.644 220.467 324.107 220.467C323.564 220.467 323.081 220.562 322.658 220.754C322.229 220.941 321.867 221.205 321.571 221.547C321.274 221.884 321.049 222.283 320.894 222.743C320.739 223.199 320.661 223.693 320.661 224.227V224.384C320.661 224.917 320.739 225.411 320.894 225.867C321.049 226.323 321.274 226.722 321.571 227.063C321.867 227.401 322.227 227.665 322.651 227.856C323.075 228.043 323.555 228.137 324.093 228.137C324.635 228.137 325.121 228.043 325.549 227.856C325.973 227.665 326.333 227.401 326.629 227.063C326.925 226.722 327.151 226.323 327.306 225.867C327.461 225.411 327.538 224.917 327.538 224.384ZM325.891 224.227V224.384C325.891 224.716 325.857 225.031 325.788 225.327C325.72 225.623 325.613 225.883 325.467 226.106C325.321 226.33 325.134 226.505 324.907 226.633C324.679 226.76 324.408 226.824 324.093 226.824C323.788 226.824 323.523 226.76 323.3 226.633C323.072 226.505 322.885 226.33 322.74 226.106C322.594 225.883 322.487 225.623 322.418 225.327C322.345 225.031 322.309 224.716 322.309 224.384V224.227C322.309 223.898 322.345 223.589 322.418 223.297C322.487 223.001 322.596 222.739 322.746 222.511C322.892 222.283 323.079 222.105 323.307 221.978C323.53 221.845 323.797 221.779 324.107 221.779C324.417 221.779 324.686 221.845 324.913 221.978C325.137 222.105 325.321 222.283 325.467 222.511C325.613 222.739 325.72 223.001 325.788 223.297C325.857 223.589 325.891 223.898 325.891 224.227ZM317.547 222.183V228H319.194V220.604H317.642L317.547 222.183ZM317.841 224.028L318.374 224.021C318.369 223.497 318.296 223.017 318.155 222.579C318.009 222.142 317.809 221.766 317.554 221.451C317.294 221.137 316.984 220.895 316.624 220.727C316.264 220.553 315.863 220.467 315.421 220.467C315.065 220.467 314.744 220.517 314.457 220.617C314.165 220.713 313.917 220.87 313.712 221.089C313.502 221.308 313.343 221.592 313.233 221.943C313.124 222.29 313.069 222.716 313.069 223.222V228H314.724V223.215C314.724 222.859 314.776 222.579 314.881 222.374C314.981 222.164 315.129 222.016 315.325 221.93C315.517 221.839 315.756 221.793 316.043 221.793C316.325 221.793 316.578 221.852 316.802 221.971C317.025 222.089 317.214 222.251 317.369 222.456C317.519 222.661 317.636 222.898 317.718 223.167C317.8 223.436 317.841 223.723 317.841 224.028ZM303.299 218.013V228H304.946V219.968L307.387 220.795V219.435L303.497 218.013H303.299Z" fill="#FFFFFF"/>
</g>
<path d="M122.446 64.4102C139.587 81.1053 161.303 83.4194 168.446 85.7382C162.89 96.0863 158.946 115.47 158.946 144.41C158.946 170.41 159.89 187.957 165.446 203.91C159.494 204.121 140.197 209.249 122.446 217.41C78.9458 237.41 -10.135 293.888 0.945801 252.91C27.4458 154.91 43.4458 160.91 81.4458 144.41C44.9458 122.029 11.4458 122.41 0.945801 14.4103C-3.45267 -30.8311 100.446 42.9833 122.446 64.4102Z" fill="#FFFFFF"/>
<defs>
<clipPath id="clip0_0_1">
<rect width="312" height="88" fill="white" transform="matrix(-1 0 0 1 458.446 179)"/>
</clipPath>
</defs>
</svg>
