<svg id="Capa_1" data-name="Capa 1" xmlns="http://www.w3.org/2000/svg" viewBox="0 0 1004.08 345.11"><defs><style>.cls-1{fill:#fefefe;}</style></defs><path class="cls-1" d="M1002.66,322.36c-4.51-16.1-9-32.21-14.82-47.91-.72-1.5-1.19-3.09-1.78-4.63-6.24-16.07-12.63-32-23.41-45.79-7.25-9.66-16.88-16.19-27.6-21.41-8.51-4.14-17.45-7.2-26.12-10.92-1-.44-2.53-.57-2.64-1.93s1.42-1.65,2.36-2.24c6-3.81,12.63-6.57,18.78-10.17a38,38,0,0,1,3.88-2.21c19-9.76,34.52-23.21,45.51-41.68a178.26,178.26,0,0,0,16-41.4c3.64-14.06,5.94-28.38,8.21-42.7.71-5.22,1.33-10.47,1.76-15.71.49-5.87,1.31-11.84-1-17.59C997.38,9,990.64,7.84,983.12,8.88c-9.47,1.31-18.18,5.07-27,8.61-8.43,4.13-16.85,8.22-25,13-11.38,6.71-22,14.59-33.41,21.22a13.82,13.82,0,0,0-2.09,1.35c-16.08,12-32.67,23.4-47,37.65-6.78,6.75-15.41,10.89-23.4,15.92V74.94A34.09,34.09,0,0,0,791.2,40.85H212.87a34.08,34.08,0,0,0-34.08,34.09V311a34.08,34.08,0,0,0,34.08,34.08H791.2A34.08,34.08,0,0,0,825.29,311V271.35c1.31,1.63,3.22,2.26,5.08,2.95,7.44,2.8,14.89,5.59,22,9.06,24.88,12.07,49.1,25.4,73.7,38a333.89,333.89,0,0,0,45,19.65A75.63,75.63,0,0,0,990,345c9.6.8,14.32-3.78,14.1-13.33C1004,328.51,1003.18,325.46,1002.66,322.36Z"/></svg>