<svg id="Capa_1" data-name="Capa 1" xmlns="http://www.w3.org/2000/svg" viewBox="0 0 825.29 336.56"><defs><style>.cls-1{fill:#fefefe;}</style></defs><path class="cls-1" d="M823.87,313.81c-4.51-16.1-9-32.21-14.82-47.91-.72-1.5-1.19-3.09-1.78-4.63-6.24-16.07-12.63-32-23.41-45.79-7.25-9.66-16.88-16.19-27.6-21.41-8.51-4.14-17.45-7.2-26.12-10.92-1-.44-2.53-.57-2.64-1.92s1.42-1.66,2.36-2.25c6-3.81,12.63-6.57,18.78-10.17a39.14,39.14,0,0,1,3.88-2.21c19-9.76,34.52-23.21,45.51-41.68a178.26,178.26,0,0,0,16.05-41.4c3.64-14.06,5.94-28.38,8.21-42.7.71-5.22,1.33-10.46,1.76-15.71.49-5.87,1.31-11.84-1-17.59C818.59.46,811.85-.71,804.33.33c-9.47,1.31-18.18,5.07-27,8.61-8.43,4.13-16.85,8.22-25,13C741,28.66,730.4,36.54,719,43.17a13.82,13.82,0,0,0-2.09,1.35c-16.08,12-32.67,23.4-47,37.65-6.78,6.76-15.41,10.89-23.4,15.92V66.39A34.09,34.09,0,0,0,612.41,32.3H34.09A34.09,34.09,0,0,0,0,66.39V302.48a34.08,34.08,0,0,0,34.09,34.08H612.41a34.08,34.08,0,0,0,34.09-34.08V262.8c1.32,1.63,3.22,2.26,5.08,2.95,7.44,2.8,14.89,5.59,22,9.06,24.88,12.07,49.1,25.4,73.7,38a333.46,333.46,0,0,0,45,19.65,75.46,75.46,0,0,0,18.87,4c9.6.81,14.32-3.78,14.1-13.33C825.21,320,824.39,316.91,823.87,313.81Z"/></svg>