<svg id="Capa_1" data-name="Capa 1" xmlns="http://www.w3.org/2000/svg" viewBox="0 0 1004.08 345.11"><defs><style>.cls-1{fill:#fefefe;}</style></defs><path class="cls-1" d="M791.2,40.85H212.87a34.08,34.08,0,0,0-34.08,34.09v31.7c-8-5-16.62-9.17-23.4-15.92-14.32-14.25-30.91-25.62-47-37.65a14.89,14.89,0,0,0-2.09-1.35c-11.42-6.63-22-14.51-33.41-21.22-8.13-4.79-16.55-8.88-25-13C39.13,14,30.43,10.19,21,8.88c-7.53-1-14.27.13-18.73,7.19-2.3,5.75-1.48,11.72-1,17.59.43,5.24,1,10.49,1.77,15.71C5.27,63.69,7.57,78,11.2,92.07a178.74,178.74,0,0,0,16.06,41.4c11,18.47,26.56,31.92,45.51,41.68a37.89,37.89,0,0,1,3.87,2.21c6.15,3.6,12.75,6.36,18.79,10.17.94.59,2.47.84,2.35,2.24s-1.61,1.49-2.63,1.93c-8.68,3.72-17.62,6.78-26.12,10.92-10.72,5.22-20.36,11.75-27.6,21.41C30.65,237.77,24.25,253.75,18,269.82c-.6,1.54-1.07,3.13-1.79,4.63-5.8,15.7-10.3,31.81-14.82,47.91-.52,3.1-1.33,6.15-1.4,9.33-.22,9.55,4.5,14.13,14.09,13.33A75.53,75.53,0,0,0,33,341a332.78,332.78,0,0,0,45-19.65c24.6-12.59,48.83-25.92,73.7-38,7.15-3.47,14.6-6.26,22-9.06,1.85-.69,3.76-1.32,5.08-2.95V311a34.08,34.08,0,0,0,34.08,34.08H791.2A34.08,34.08,0,0,0,825.29,311V74.94A34.09,34.09,0,0,0,791.2,40.85Z"/></svg>