<svg width="54" height="54" viewBox="0 0 54 54" fill="none" xmlns="http://www.w3.org/2000/svg">
<path d="M26.7919 21.6396C24.04 21.6396 21.8511 23.8912 21.8511 26.5805C21.8511 29.3323 24.1026 31.5213 26.7919 31.5213C29.5437 31.5213 31.7327 29.2698 31.7327 26.5805C31.7327 23.8286 29.5437 21.6396 26.7919 21.6396Z" fill="white"/>
<path d="M38.4247 17.8245C37.9244 16.5112 36.9237 15.5105 35.6103 15.0101C34.7347 14.6974 33.7966 14.5098 32.8585 14.5098C31.2949 14.4473 30.7946 14.4473 26.8544 14.4473C22.9143 14.4473 22.4139 14.4473 20.8504 14.5098C19.9123 14.5098 18.9741 14.6974 18.0985 15.0101C16.8477 15.5105 15.7845 16.5112 15.2842 17.8245C14.9714 18.7001 14.7838 19.6383 14.7838 20.5764C14.5962 22.1399 14.5962 22.5777 14.5962 26.5804C14.5962 30.5831 14.5962 31.0209 14.6587 32.5845C14.6587 33.5226 14.8464 34.4607 15.1591 35.3363C15.6594 36.6497 16.6601 37.6504 17.9735 38.1507C18.849 38.4634 19.7872 38.651 20.7253 38.651C22.2889 38.7136 22.7892 38.7136 26.7293 38.7136C30.732 38.7136 31.1698 38.7136 32.7334 38.651C33.6715 38.651 34.6096 38.4634 35.4852 38.1507C36.7986 37.6504 37.7993 36.6497 38.2996 35.3363C38.6123 34.4607 38.8 33.5226 38.8 32.5845C38.8625 31.0209 38.8625 30.5206 38.8625 26.5804C38.8625 22.6403 38.8625 22.1399 38.8 20.5764C38.925 19.6383 38.7374 18.7001 38.4247 17.8245ZM26.7919 34.2105C22.6016 34.2105 19.1618 30.7707 19.1618 26.5804C19.1618 22.3901 22.6016 18.9503 26.7919 18.9503C30.9822 18.9503 34.422 22.3276 34.422 26.5804C34.422 30.7707 30.9822 34.2105 26.7919 34.2105ZM34.7347 20.4513C33.7341 20.4513 32.921 19.6383 32.921 18.6376C32.921 17.6369 33.7341 16.8239 34.7347 16.8239C35.7354 16.8239 36.5484 17.6369 36.5484 18.6376C36.5484 19.6383 35.7354 20.4513 34.7347 20.4513Z" fill="white"/>
<path d="M26.7918 0C12.0944 0 0.211426 11.883 0.211426 26.5804C0.211426 41.2777 12.0944 53.1607 26.7918 53.1607C41.4892 53.1607 53.3721 41.2777 53.3721 26.5804C53.3721 11.883 41.4892 0 26.7918 0ZM41.6768 32.7095C41.6768 33.9603 41.4266 35.1486 40.9888 36.3369C40.2383 38.3383 38.6122 39.9644 36.6109 40.7149C35.4226 41.1526 34.2343 41.4028 32.9834 41.4028C31.4199 41.4654 30.9196 41.4654 26.8543 41.4654C22.7891 41.4654 22.2888 41.4654 20.7252 41.4028C19.4744 41.4028 18.2861 41.1526 17.0978 40.7149C15.0964 39.9644 13.4703 38.3383 12.7198 36.3369C12.282 35.2112 12.0319 34.0229 11.9693 32.772C11.9068 31.2085 11.9068 30.6456 11.9068 26.6429C11.9068 22.5777 11.9068 22.0773 11.9693 20.5138C11.9693 19.2629 12.2195 18.0746 12.6573 16.8863C13.4078 14.885 15.0339 13.2589 17.0352 12.5084C18.2235 12.0706 19.4118 11.8204 20.6627 11.8204C22.2262 11.6954 22.7266 11.6954 26.7918 11.6954L26.8543 11.6328C30.9196 11.6328 31.4199 11.6328 32.9834 11.6954C34.2343 11.6954 35.4226 11.9455 36.6109 12.3833C38.6122 13.1338 40.2383 14.7599 40.9888 16.7613C41.4266 17.9496 41.6768 19.1379 41.6768 20.3887C41.7393 21.9523 41.7393 22.5151 41.7393 26.5178C41.7393 30.6456 41.7393 31.1459 41.6768 32.7095Z" fill="white"/>
</svg>
