<svg width="54" height="54" viewBox="0 0 54 54" fill="none" xmlns="http://www.w3.org/2000/svg">
<path d="M26.5843 0C11.8869 0 0.00390625 11.883 0.00390625 26.5804C0.00390625 41.2777 11.8869 53.1607 26.5843 53.1607C41.2816 53.1607 53.1646 41.2777 53.1646 26.5804C53.1646 11.883 41.2816 0 26.5843 0ZM18.2662 41.3403H12.0745V21.5145H18.2662V41.3403ZM15.2016 18.7626C13.2003 18.7626 11.6367 17.1365 11.6367 15.1977C11.6367 13.1964 13.2628 11.6328 15.2016 11.6328C17.203 11.6328 18.7665 13.2589 18.7665 15.1977C18.7665 17.1991 17.1404 18.7626 15.2016 18.7626ZM41.4067 41.3403H35.2151V31.7088C35.2151 29.3948 35.1525 26.4553 32.0254 26.4553C28.8983 26.4553 28.3354 28.957 28.3354 31.5837V41.4028H22.2063V21.577H28.0853V24.2038H28.2104C29.3987 22.1399 31.6502 20.889 34.0268 21.0141C40.281 21.0141 41.4067 25.1419 41.4067 30.458V41.3403Z" fill="white"/>
</svg>
