<svg xmlns="http://www.w3.org/2000/svg" viewBox="0 0 47.63 38.68"><defs><style>.cls-1{fill:black;}</style></defs><g id="Capa_2" data-name="Capa 2"><g id="Capa_1-2" data-name="Capa 1"><path class="cls-1" d="M46.31.71a19.48,19.48,0,0,1-6.2,2.37A9.77,9.77,0,0,0,23.22,9.76,10.44,10.44,0,0,0,23.47,12,27.76,27.76,0,0,1,3.33,1.84a9.77,9.77,0,0,0,3,13A9.84,9.84,0,0,1,1.9,13.62v.13a9.76,9.76,0,0,0,7.84,9.57,10,10,0,0,1-4.41.17,9.75,9.75,0,0,0,9.12,6.78A19.58,19.58,0,0,1,2.33,34.43,20.1,20.1,0,0,1,0,34.29a27.51,27.51,0,0,0,15,4.39c18,0,27.79-14.88,27.79-27.78V9.63a19.7,19.7,0,0,0,4.84-5.05A19.48,19.48,0,0,1,42,6.12,9.74,9.74,0,0,0,46.31.71Z"/></g></g></svg>