<svg width="104" height="104" viewBox="0 0 104 104" fill="none" xmlns="http://www.w3.org/2000/svg">
<path d="M51.5267 0C23.0355 0 0 23.0355 0 51.5267C0 80.0179 23.0355 103.053 51.5267 103.053C80.0179 103.053 103.053 80.0179 103.053 51.5267C103.053 23.0355 80.0179 0 51.5267 0ZM80.3816 63.4081C80.3816 65.8329 79.8967 68.1365 79.048 70.44C77.5931 74.3197 74.4409 77.4719 70.5613 78.9268C68.2577 79.7754 65.9542 80.2604 63.5294 80.2604C60.4984 80.3816 59.5285 80.3816 51.6479 80.3816C43.7674 80.3816 42.7975 80.3816 39.7665 80.2604C37.3417 80.2604 35.0382 79.7754 32.7346 78.9268C28.855 77.4719 25.7027 74.3197 24.2479 70.44C23.3992 68.2577 22.9142 65.9542 22.793 63.5294C22.6717 60.4984 22.6717 59.4073 22.6717 51.6479C22.6717 43.7674 22.6717 42.7975 22.793 39.7665C22.793 37.3417 23.2779 35.0382 24.1266 32.7346C25.5815 28.855 28.7337 25.7027 32.6134 24.2479C34.9169 23.3992 37.2205 22.9142 39.6452 22.9142C42.6762 22.6717 43.6461 22.6717 51.5267 22.6717L51.6479 22.5505C59.5285 22.5505 60.4984 22.5505 63.5294 22.6717C65.9542 22.6717 68.2577 23.1567 70.5613 24.0054C74.4409 25.4603 77.5931 28.6125 79.048 32.4921C79.8967 34.7957 80.3816 37.0992 80.3816 39.524C80.5029 42.555 80.5029 43.6461 80.5029 51.4055C80.5029 59.4072 80.5029 60.3772 80.3816 63.4081Z" fill="white"/>
</svg>
