<svg width="85" height="85" viewBox="0 0 85 85" fill="none" xmlns="http://www.w3.org/2000/svg">
<path d="M42.5 0C19 0 0 19 0 42.5C0 66 19 85 42.5 85C66 85 85 66 85 42.5C85 19 66 0 42.5 0ZM29.2 66.1H19.3V34.4H29.2V66.1ZM24.3 30C21.1 30 18.6 27.4 18.6 24.3C18.6 21.1 21.2 18.6 24.3 18.6C27.5 18.6 30 21.2 30 24.3C30 27.5 27.4 30 24.3 30ZM66.2 66.1H56.3V50.7C56.3 47 56.2 42.3 51.2 42.3C46.2 42.3 45.3 46.3 45.3 50.5V66.2H35.5V34.5H44.9V38.7H45.1C47 35.4 50.6 33.4 54.4 33.6C64.4 33.6 66.2 40.2 66.2 48.7V66.1Z" fill="white"/>
</svg>
