<svg xmlns="http://www.w3.org/2000/svg" viewBox="0 0 1132.12 1042.34"><defs><style>.cls-1{fill:#272727;}.cls-2{fill:#7b6cf7;opacity:0.5;}.cls-3{fill:#008aff;}.cls-4{fill:#005ece;}.cls-5{fill:#ff622b;}.cls-6{fill:#ff9800;}.cls-7{fill:#1e120d;}.cls-8{fill:#64b9ff;}</style></defs><g id="Capa_2" data-name="Capa 2"><g id="Capa_1-2" data-name="Capa 1"><path class="cls-1" d="M139.44,300.46,120,358l-23.16-7.83,11.65-34.42-16.34-5.52-9.51,28.12-22.32-7.55,9.51-28.13L30.32,289.35l7.83-23.15Z"/><path class="cls-1" d="M2.21,412.06l106.5,9.65-2.21,24.34L0,436.4Z"/><path class="cls-1" d="M43.76,603.73c-15.75,2.62-34.42-9-38.39-32.92-3.13-18.82,4.75-33.62,6.57-36.93l22.3,13c-1.9,3.85-7.83,9.32-6.05,20.05,1.5,9,7.92,11.5,11.34,11.33,2.35-.12,8-1.28,8.32-18.2v-1c.38-26.33,10.65-41.29,29.88-44.49,15.75-2.62,34.42,9,38.39,32.92a57.64,57.64,0,0,1-6.79,37.31l-1.68,2.83L85.4,574.49s1.47-2.29,1.85-3.12c2.08-4.53,6.67-9.19,4.88-19.92-1.49-9-6.82-11.91-10.17-11.44-2.71.37-7.91,1.26-8.24,18.67v1C73.35,585.72,63.05,600.53,43.76,603.73Z"/><path class="cls-1" d="M165.05,702l11.24,21.69L81.48,772.76l-11.23-21.7,37.16-19.24-15.54-30L54.71,721.05l-11.23-21.7,94.81-49.07L149.52,672l-37.16,19.24,15.53,30Z"/><path class="cls-1" d="M245.62,851.16a32.59,32.59,0,0,1-19.78,9.48,32.76,32.76,0,0,1-55.77,20l-31.78-31.53,75.31-75.9,31.78,31.53A32.85,32.85,0,0,1,245.62,851.16Zm-46.56,12a8.51,8.51,0,0,0,.12-11.91L184.75,837l-11.9,12,14.43,14.32A8.35,8.35,0,0,0,199.06,863.18Zm29.11-29.34a8.35,8.35,0,0,0,0-11.78l-14.44-14.32L202,819.6l14.44,14.32A8.34,8.34,0,0,0,228.17,833.84Z"/><path class="cls-1" d="M392.33,959.75a56.72,56.72,0,1,1-26.16-75.83A56.8,56.8,0,0,1,392.33,959.75ZM369,948.4c7.43-15.26,1.73-35.1-13.54-42.54s-34.39.31-41.83,15.57-1.73,35.11,13.53,42.54S361.58,963.66,369,948.4Z"/><path class="cls-1" d="M565.54,932.77l23.13,7.9L554,1042.34l-24.36-2-8.56-52.16-17.09,50-24.36-2-17.35-106,24.12-4,9.74,59.54,18.51-54,22.12,1.85,9.3,56.29Z"/><path class="cls-1" d="M694.18,1001.62l35.19-9.1,5.83,22.53-58.85,15.23-26.8-103.57,23.67-6.13Z"/><path class="cls-1" d="M905.22,785.46l50.45-67.12,18.38,13.81-17.88,23.79,67.11,50.44-14.69,19.54-67.11-50.44-17.88,23.8Z"/><path class="cls-1" d="M984.23,662.35l21-57,22.93,8.45-12.56,34.1,16.18,6L1042.05,626l22.12,8.15L1053.9,662l16.18,5.95,12.56-34.09,22.94,8.45-21,57Z"/><path class="cls-1" d="M1021.52,488.6,1125,457l7.12,23.38-22.38,6.83-2,36.45,21.52,9.15-9.58,22.49L1020.19,513Zm63.33,6.24-26.17,8,25.17,10.7Z"/><path class="cls-1" d="M986,289.28l94.87-49.7,11.34,21.64-51.26,26.86,57.44,2.11,7.49,23.27-45.38,35.32,57.33-8.2,3.46,24.2-106,15.15-6.94-21.52,57.76-45-73.15-2.69Z"/><path class="cls-2" d="M489.47,332.33c1,.14,2,.27,3,.36-1-.09-2.1-.19-3.14-.33C489.39,332.36,489.45,332.36,489.47,332.33Z"/><path class="cls-3" d="M975,482.09c-8.12,192.58-173.66,389.33-404.18,389.33S153.48,692.93,153.48,472.77v-1.15c0-165.13,127.19-267.7,141.58-267.7,29.36,0,29.85,46.61,75.18,86,18.81,16.33,58.52,35.92,113.42,42.41a.15.15,0,0,1-.11,0c1,.14,2.1.24,3.13.33,3.06.35,6.14.65,9.3.9,1.83.13,3.65.27,5.48.38,2.21.16,4.44.27,6.68.35,68.74,2.84,156.87-15.18,255.24-79.76,33.07-21.72,74-67.95,50-104.48-.44-.65-.9-1.3-1.36-2C877.46,196.83,975.56,309.41,975,482.09Z"/><path class="cls-4" d="M762.89,254.56c-98.37,64.58-186.5,82.6-255.24,79.76-2.24-.11-4.47-.22-6.68-.35-1.85-.11-3.68-.25-5.48-.38-3.16-.25-6.24-.55-9.29-.9-1-.09-2.1-.19-3.14-.33a.15.15,0,0,0,.11,0c27.07-3.84,128.55-37.26,196.5-110.12a244.84,244.84,0,0,0,18.57-22.11c50.61-69.18,94.72-65.83,113.31-52,.46.66.93,1.31,1.36,2C836.84,186.61,796,232.84,762.89,254.56Z"/><circle class="cls-3" cx="341.52" cy="179.88" r="15.77"/><path class="cls-5" d="M636.3,39.33c-19.07-10.1-42.83-11.66-59.67-11.13-.54,0-1.06,0-1.61.07s-1,0-1.55.05c-3.55.18-6.7.44-9.35.68A6.4,6.4,0,0,0,563,23c-4.37-6-27-11.3-28.54-17.21s10.59-11.8,52,6.62C612.33,23.89,628.07,33.6,636.3,39.33Z"/><path class="cls-5" d="M470.16,117.41c-10.52,5.34-17.91,15.59-22.46,27.75-3.87,10.3-13.74,51.05-18,50.48-10.22-1.36-29.6-31.7-25.9-53.15,1.42-8.18,8.45-17.07,14-22.82l-2.4,1c-32.71,10.22-43.62,21.13-42.93,11.59,2.37-33.34,41.48-48.9,64.76-50.46,9.19-.6,17.53,1.31,25-3-4.74,3-27.07,17.91-35.57,38.49C418.89,136,456,123,470.16,117.41Z"/><path class="cls-6" d="M590.07,154.9c-19.55.46-38.79-7.06-52-21.51-5.62-6.19-25.9-16.6-43.62-19.32a50.44,50.44,0,0,0-5.83-.55,38.34,38.34,0,0,0-13.14,1.75,34.63,34.63,0,0,0-5.34,2.15C456,123,418.89,136,426.63,117.26c8.5-20.58,30.83-35.49,35.57-38.49.57-.36.9-.55.9-.55,6.43-4.25,15.24-9.92,25.54-16a413.52,413.52,0,0,1,46.75-24l.08,0c2.67-1.15,5.34-2.24,8-3.3v-.25s.08,0,.11,0c2.48-1,5.42-2.13,8.78-3.3l1.47-.49c.52-.19,1-.36,1.53-.52,16-5.26,39.16-10.47,60.26-6.19,0,0,.06,0,.08,0a80.31,80.31,0,0,1,8.35,3.16s0,0,0,0h0C641,34.17,654,49.46,659.77,77.3,672.85,140.15,626.18,154.08,590.07,154.9Z"/><path class="cls-5" d="M536.74,124c-3.46,5.32-8.32,11.34-14,14.72-11.8,7-23.17,6-23.17,0,0-5.53,13.63-10.88,13.63-10.88s-20.91-1.55-21.81-12.45c-.68-8.21,13.28-10.25,24.7-10a43.74,43.74,0,0,1,16.27,3.68A10.19,10.19,0,0,1,536.74,124Z"/><path class="cls-7" d="M576.1,118.92c-.42-5,2.53-9.07,6.58-9s8.71,3.29,9.14,8.32a7.56,7.56,0,0,1-7.75,8.2A7.68,7.68,0,0,1,576.1,118.92Z"/><path class="cls-5" d="M584.12,48.06c-20.94-7.57-45.36-4.65-62.42-.73-.55.12-1.07.24-1.63.39s-1,.24-1.56.36c-3.59.89-6.75,1.81-9.42,2.6a7.59,7.59,0,0,0-2-6.49c-5.36-5.84-29.18-7.36-31.65-13.68s9-15.3,54-2.81C557.38,35.47,574.88,43.26,584.12,48.06Z"/><path class="cls-7" d="M652,99.31c2.24,3.6,1.57,7.73-1.47,9.24a7.93,7.93,0,0,1-10-2.73,6.34,6.34,0,0,1,2.66-9.07A6.43,6.43,0,0,1,652,99.31Z"/><circle class="cls-5" cx="850.52" cy="912.82" r="25.05"/><path class="cls-4" d="M836.48,211.78c24.44,75.14,16.93,127.66,6,161.33-42.32,130.3-191.38,143.44-213.65,273.33-3,17.27-13.64,73.92,19.48,116,4.68,5.93,19.18,24.36,42.72,31.85,69.23,22,156.78-69.48,194.87-125.27a336.45,336.45,0,0,0,52.56-127.24c1.51-8,8.22-45.47,4-95.52-1.67-19.78-9.17-87.18-51.94-161.31A406.22,406.22,0,0,0,836.48,211.78Z"/><path class="cls-4" d="M277.05,255.8C257,284.32,202.49,369.68,205.8,489.67,210,640.08,301.92,735.43,322.72,756c-14.66-11-136.64-105.57-138-267.74C183.71,359.46,259.45,274.56,277.05,255.8Z"/><path class="cls-8" d="M293.55,678.94a353.88,353.88,0,0,1-48.77-121.85c-5.54-28.44-16.57-87.57,6.86-153.51,6.27-17.64,35.69-100.43,78.09-98.57,23.71,1.05,47.13,28.37,50.8,55.47,4.85,35.8-25.65,64-43.45,86.65C305.85,486.88,278.15,554.89,293.55,678.94Z"/></g></g></svg>