<svg id="Capa_1" data-name="Capa 1" xmlns="http://www.w3.org/2000/svg" viewBox="0 0 1500 1500"><defs><style>.cls-1{fill:#272727;}.cls-2{fill:#7b6cf7;opacity:0.5;}.cls-3{fill:#008aff;}.cls-4{fill:#005ece;}.cls-5{fill:#ff622b;}.cls-6{fill:#ff9800;}.cls-7{fill:#1e120d;}.cls-8{fill:#64b9ff;}</style></defs><path class="cls-1" d="M323.38,529.29l-19.47,57.58L280.75,579l11.65-34.43-16.34-5.52-9.51,28.12-22.32-7.55,9.51-28.12-39.48-13.36L222.09,495Z"/><path class="cls-1" d="M186.15,640.88l106.5,9.66-2.21,24.34-106.5-9.65Z"/><path class="cls-1" d="M227.7,832.56c-15.75,2.61-34.41-9-38.39-32.92-3.13-18.83,4.75-33.62,6.57-36.93l22.3,13c-1.9,3.85-7.83,9.32-6.05,20,1.5,9,7.92,11.5,11.34,11.33,2.35-.12,8-1.29,8.32-18.21,0-.25,0-.77,0-1,.37-26.33,10.64-41.3,29.88-44.49,15.74-2.62,34.41,9,38.38,32.92a57.6,57.6,0,0,1-6.79,37.3l-1.68,2.84-22.25-13.12s1.48-2.29,1.85-3.12c2.08-4.53,6.67-9.2,4.89-19.92-1.5-9-6.83-11.92-10.18-11.45-2.71.38-7.91,1.27-8.24,18.68v1C257.29,814.55,247,829.35,227.7,832.56Z"/><path class="cls-1" d="M349,930.81l11.24,21.7-94.81,49.08-11.23-21.7,37.16-19.24-15.53-30-37.16,19.23-11.24-21.7,94.81-49.07,11.23,21.7L296.3,920l15.53,30Z"/><path class="cls-1" d="M429.56,1080a32.52,32.52,0,0,1-19.78,9.47,32.77,32.77,0,0,1-55.77,20l-31.78-31.54L397.54,1002l31.78,31.53A32.85,32.85,0,0,1,429.56,1080ZM383,1092a8.51,8.51,0,0,0,.12-11.91l-14.43-14.32-11.9,12,14.43,14.32A8.35,8.35,0,0,0,383,1092Zm29.11-29.34a8.35,8.35,0,0,0,0-11.78l-14.44-14.32-11.77,11.86,14.44,14.32A8.34,8.34,0,0,0,412.11,1062.67Z"/><path class="cls-1" d="M576.27,1188.58a56.72,56.72,0,1,1-26.16-75.83A56.78,56.78,0,0,1,576.27,1188.58ZM553,1177.23c7.43-15.27,1.73-35.11-13.54-42.54s-34.39.31-41.82,15.57-1.74,35.11,13.52,42.54S545.52,1192.49,553,1177.23Z"/><path class="cls-1" d="M749.48,1161.59l23.13,7.91-34.67,101.67-24.36-2L705,1217l-17.09,50-24.36-2-17.35-106,24.12-4,9.74,59.55,18.51-54,22.12,1.85,9.3,56.28Z"/><path class="cls-1" d="M878.12,1230.45l35.19-9.1,5.83,22.53-58.85,15.22L833.5,1155.53l23.66-6.12Z"/><path class="cls-1" d="M1089.16,1014.29l50.45-67.13L1158,961l-17.88,23.79,67.11,50.44-14.69,19.54-67.11-50.44-17.88,23.79Z"/><path class="cls-1" d="M1168.17,891.17l21-57,22.93,8.45-12.56,34.09,16.18,6L1226,854.8l22.12,8.15-10.27,27.85,16.18,6,12.56-34.09,22.94,8.44-21,57Z"/><path class="cls-1" d="M1205.46,717.43l103.48-31.57,7.12,23.38-22.38,6.83-2,36.45,21.52,9.15-9.58,22.49-99.54-42.32Zm63.33,6.24-26.17,8,25.17,10.7Z"/><path class="cls-1" d="M1169.9,518.1l94.87-49.7,11.34,21.65-51.26,26.86,57.44,2.11,7.49,23.27-45.38,35.32,57.33-8.2,3.46,24.2-106,15.15-6.94-21.52,57.76-45-73.15-2.7Z"/><path class="cls-2" d="M673.41,561.16c1,.14,2,.27,3,.35-1-.08-2.1-.19-3.14-.32C673.33,561.19,673.39,561.19,673.41,561.16Z"/><path class="cls-3" d="M1159,710.92c-8.12,192.57-173.66,389.32-404.18,389.32S337.42,921.76,337.42,701.59v-1.14c0-165.13,127.19-267.7,141.58-267.7,29.36,0,29.85,46.61,75.18,86C573,535.07,612.7,554.67,667.6,561.16a.15.15,0,0,1-.11,0c1,.13,2.1.24,3.13.32,3.06.36,6.14.66,9.3.9,1.83.14,3.65.28,5.48.39,2.21.16,4.44.27,6.68.35C760.82,566,849,548,947.32,483.39c33.07-21.72,73.95-67.95,50-104.48-.44-.65-.9-1.31-1.36-2C1061.4,425.66,1159.5,538.24,1159,710.92Z"/><path class="cls-4" d="M947.34,483.42C849,548,760.84,566,692.1,563.18c-2.24-.11-4.47-.22-6.68-.35-1.85-.11-3.68-.25-5.48-.38-3.16-.25-6.24-.55-9.29-.9-1-.09-2.1-.19-3.14-.33a.15.15,0,0,0,.11,0c27.07-3.84,128.55-37.26,196.5-110.12A244.84,244.84,0,0,0,882.69,429c50.62-69.18,94.72-65.83,113.31-52,.46.66.93,1.31,1.36,2C1021.3,415.47,980.41,461.7,947.34,483.42Z"/><circle class="cls-3" cx="525.46" cy="408.71" r="15.77"/><path class="cls-5" d="M820.24,268.16c-19.07-10.1-42.83-11.67-59.67-11.13-.54,0-1.06,0-1.61.07s-1,0-1.55,0c-3.55.17-6.7.44-9.35.67a6.39,6.39,0,0,0-1.08-6c-4.37-6-27-11.3-28.54-17.21s10.59-11.8,52,6.62C796.27,252.72,812,262.43,820.24,268.16Z"/><path class="cls-5" d="M654.1,346.24c-10.52,5.34-17.91,15.59-22.46,27.75-3.87,10.3-13.74,51.05-18,50.48-10.22-1.36-29.6-31.7-25.9-53.15,1.42-8.18,8.45-17.07,14-22.82l-2.4,1c-32.71,10.22-43.61,21.12-42.93,11.58,2.37-33.33,41.48-48.9,64.76-50.45,9.19-.6,17.53,1.31,25-3.05-4.74,3-27.07,17.9-35.57,38.48C602.83,364.83,639.9,351.8,654.1,346.24Z"/><path class="cls-6" d="M774,383.73c-19.55.46-38.79-7.06-52-21.51-5.62-6.19-25.9-16.6-43.62-19.33a48.25,48.25,0,0,0-5.83-.54,38.59,38.59,0,0,0-13.14,1.74,35.7,35.7,0,0,0-5.34,2.16c-14.2,5.56-51.27,18.59-43.53-.17,8.5-20.58,30.83-35.49,35.57-38.49l.9-.54c6.43-4.25,15.24-9.92,25.54-16.06a415.19,415.19,0,0,1,46.75-24l.08,0c2.67-1.14,5.34-2.23,8-3.3v-.24s.08,0,.11-.06c2.48-1,5.43-2.12,8.78-3.29l1.47-.49c.52-.19,1-.36,1.53-.52,16-5.26,39.17-10.47,60.26-6.19,0,0,.06,0,.09,0a80.62,80.62,0,0,1,8.34,3.16s0,0,0,0h0c16.85,6.92,29.85,22.21,35.63,50C856.79,369,810.13,382.91,774,383.73Z"/><path class="cls-5" d="M720.68,352.86c-3.46,5.31-8.32,11.34-14,14.72-11.8,7-23.17,6-23.17,0,0-5.54,13.63-10.88,13.63-10.88s-20.91-1.55-21.81-12.46c-.68-8.2,13.28-10.24,24.7-10A43.36,43.36,0,0,1,716.26,338,10.19,10.19,0,0,1,720.68,352.86Z"/><path class="cls-7" d="M760,347.74c-.42-5,2.53-9.06,6.58-9s8.71,3.29,9.14,8.32a7.56,7.56,0,0,1-7.75,8.2C764,355.19,760.47,352.76,760,347.74Z"/><path class="cls-5" d="M768.06,276.89c-20.94-7.57-45.35-4.65-62.41-.73-.56.11-1.08.24-1.63.38s-1,.25-1.57.37c-3.59.89-6.75,1.81-9.42,2.6a7.58,7.58,0,0,0-2-6.49c-5.36-5.84-29.18-7.36-31.65-13.68s9-15.31,54-2.82C741.32,264.3,758.82,272.09,768.06,276.89Z"/><path class="cls-7" d="M836,328.14c2.24,3.6,1.57,7.73-1.47,9.23a7.93,7.93,0,0,1-10-2.72,6.35,6.35,0,0,1,2.66-9.08A6.44,6.44,0,0,1,836,328.14Z"/><circle class="cls-5" cx="1034.46" cy="1141.65" r="25.05"/><path class="cls-4" d="M1020.42,440.61c24.44,75.14,16.93,127.66,6,161.33C984.09,732.24,835,745.38,812.76,875.27c-3,17.27-13.64,73.91,19.48,116,4.68,5.94,19.18,24.37,42.73,31.86,69.22,22,156.77-69.48,194.86-125.27a336.51,336.51,0,0,0,52.56-127.24c1.51-8,8.22-45.47,4-95.52-1.67-19.78-9.17-87.19-51.94-161.31A406.22,406.22,0,0,0,1020.42,440.61Z"/><path class="cls-4" d="M461,484.63c-20.07,28.51-74.56,113.88-71.25,233.86,4.16,150.42,96.12,245.77,116.92,266.32C492,973.84,370,879.24,368.7,717.07,367.65,588.29,443.39,503.39,461,484.63Z"/><path class="cls-8" d="M477.49,907.77a354,354,0,0,1-48.77-121.85c-5.54-28.44-16.57-87.57,6.86-153.51,6.27-17.64,35.69-100.44,78.09-98.57,23.71,1,47.13,28.37,50.8,55.47,4.85,35.8-25.65,64-43.45,86.65C489.79,715.71,462.09,783.72,477.49,907.77Z"/></svg>