<svg width="980" height="937" viewBox="0 0 980 937" fill="none" xmlns="http://www.w3.org/2000/svg">
<rect width="980" height="959" fill="url(#paint0_linear_139_371)"/>
<g clip-path="url(#clip0_139_371)">
<path d="M792.699 580.314C791.523 555.251 787.186 533.054 779.836 514.238C771.235 492.334 758.886 476.311 743.23 466.609C721.178 453.085 700.302 457.054 681.926 460.582C663.476 464.11 644.364 467.785 615.624 458.671C608.861 456.54 597.982 453.085 586.736 447.132C586.956 446.029 587.03 444.927 587.03 443.824C587.03 434.343 579.385 426.699 569.903 426.699C567.11 426.699 564.39 427.36 562.038 428.61C557.407 423.538 553.291 417.658 550.13 410.823C548.88 408.177 547.851 405.383 546.896 402.443C549.909 399.797 551.82 395.828 551.82 391.492C551.82 385.391 548.072 380.173 542.779 377.968C542.412 366.502 544.323 355.33 548.733 346.73C550.938 348.641 553.879 349.817 557.039 349.817C564.096 349.817 569.756 344.084 569.756 337.102C569.756 334.897 569.168 332.839 568.212 331.001C574.24 329.458 579.312 329.752 580.194 329.825C585.78 330.266 590.999 332.104 595.63 334.676C594.527 336.587 593.939 338.866 593.939 341.218C593.939 348.641 599.967 354.668 607.391 354.668C610.552 354.668 613.418 353.566 615.697 351.802C616.285 352.537 616.873 353.125 617.314 353.713C620.401 357.388 625.62 363.488 635.323 364.076L644.805 364.591L651.715 358.123C655.096 354.962 662.3 346.142 656.64 331.883C653.994 325.121 645.099 308.069 630.913 292.266C611.875 271.098 590.043 259.926 567.698 259.926C567.624 259.926 567.624 259.926 567.551 259.926C541.015 260.073 516.023 275.655 497.279 303.953C481.843 327.179 472.434 357.02 471.993 383.774C471.038 447.058 520.507 499.684 569.976 523.719C607.317 541.874 639.586 540.624 663.182 539.669C684.645 538.86 692.658 539.081 698.171 545.402C701.478 549.15 703.536 554.295 704.639 560.543C697.73 564.071 693.025 571.274 693.025 579.506C693.025 586.929 696.847 593.471 702.581 597.293C700.449 607.436 697.288 618.314 693.319 629.266C680.676 629.854 670.532 640.291 670.532 653.153C670.532 658.886 672.591 664.178 675.972 668.368C673.987 672.116 671.929 675.791 669.871 679.393C663.917 689.536 658.11 697.841 652.376 705.044C649.877 704.162 647.158 703.648 644.364 703.648C631.427 703.648 620.916 714.159 620.916 727.095C620.916 730.182 621.504 733.122 622.607 735.768C610.405 747.087 597.909 758.626 586.148 775.458C584.31 775.017 582.325 774.796 580.341 774.796C565.934 774.796 554.173 786.483 554.173 800.962C554.173 808.68 557.48 815.589 562.773 820.367C557.333 834.773 553.364 849.914 550.865 865.643C542.412 870.273 536.678 879.24 536.678 889.604C536.678 898.571 541.015 906.509 547.704 911.507C547.851 923.341 548.733 935.468 550.35 947.89L552.85 967.073H717.503L705.154 936.718C694.642 910.919 690.599 885.414 693.172 860.939C696.48 828.672 710.152 809.782 727.499 785.895C738.746 770.313 751.536 752.746 762.782 729.373C784.099 685.052 795.051 630.736 792.699 580.314Z" fill="url(#paint1_linear_139_371)"/>
</g>
<g clip-path="url(#clip1_139_371)">
<path d="M468.263 923.961C463.929 921.68 459.671 919.4 455.489 916.967C456.63 914.23 457.238 911.266 457.238 908.149C457.238 895.606 447.049 885.419 434.503 885.419C428.116 885.419 422.413 888.004 418.231 892.261C405.533 882.606 393.519 872.04 382.342 860.637C380.517 858.736 378.388 856.608 376.107 854.251C378.464 850.526 379.757 846.193 379.757 841.556C379.757 828.328 369.036 817.61 355.805 817.61C352.612 817.61 349.57 818.218 346.833 819.358C336.188 804.458 325.391 786.214 316.495 764.396C323.186 760.367 327.672 753.069 327.672 744.631C327.672 731.936 317.331 721.597 304.633 721.597C303.416 721.597 302.276 721.673 301.135 721.825C294.9 700.464 291.935 678.646 298.55 659.566C301.211 660.782 304.177 661.466 307.294 661.466C318.928 661.466 328.356 652.04 328.356 640.409C328.356 635.543 326.683 631.058 323.946 627.485C331.246 622.24 338.545 618.591 343.639 616.006L343.792 615.93C347.593 614.03 351.167 612.434 354.589 611.141C358.467 616.158 364.473 619.427 371.317 619.427C380.973 619.427 389.109 612.89 391.618 604.071C405.761 602.855 421.501 600.803 436.176 587.955C454.196 572.295 463.017 547.437 462.332 514.141C461.952 490.422 456.782 467.845 454.348 456.974C444.92 415.695 428.344 390.913 413.669 369.02C399.222 347.43 386.676 328.805 380.745 295.053C375.803 266.698 378.084 242.143 379.225 230.36C380.137 221.086 380.897 213.028 374.282 205.198C370.404 200.485 364.626 197.52 358.467 197.064C351.243 196.532 344.324 199.344 339.381 204.818C337.1 207.326 334.591 210.975 331.702 219.794C331.398 219.794 331.094 219.718 330.865 219.718C323.414 219.718 317.407 225.723 317.407 233.173C317.407 238.722 320.753 243.436 325.543 245.488C325.315 246.704 325.087 247.997 324.935 249.289C323.87 256.359 322.882 264.873 322.425 274.528C315.962 275.972 311.172 281.749 311.172 288.667C311.172 295.737 316.19 301.59 322.806 302.883C323.338 310.181 324.326 317.783 325.771 325.613C327.596 335.495 329.953 344.161 332.69 351.915C330.029 354.728 328.356 358.605 328.356 362.786C328.356 371.528 335.428 378.598 344.172 378.598C344.4 378.598 344.552 378.598 344.78 378.598C348.962 386.048 353.372 392.89 357.782 399.579C360.063 403.076 362.344 406.573 364.549 410.146C361.736 413.111 359.987 417.14 359.987 421.625C359.987 430.899 367.515 438.425 376.791 438.425C377.552 438.425 378.312 438.349 378.996 438.273C382.418 446.787 385.459 456.518 387.969 468.301C388.729 471.95 389.641 476.207 390.478 480.92C384.775 484.113 380.897 490.194 380.897 497.264C380.897 505.322 385.992 512.164 393.139 514.825C392.455 522.579 390.478 528.204 387.36 530.941C386.524 531.701 385.84 531.929 377.019 532.461C368.123 532.917 356.033 533.601 338.849 537.783C325.695 540.975 285.624 550.782 254.601 580.809C222.666 611.749 215.29 649.759 211.716 668.004C197.422 740.906 227.456 801.418 249.354 845.585C270.112 887.319 297.561 925.861 331.17 960.146L337.861 966.988H550.991L468.263 923.961Z" fill="url(#paint2_linear_139_371)"/>
</g>
<g clip-path="url(#clip2_139_371)">
<path d="M333.577 944.057C333.712 937.22 331.206 930.315 325.991 925.103C315.832 914.948 299.373 914.948 289.214 925.103C288.875 925.441 288.604 925.78 288.266 926.118C278.987 922.056 269.166 917.115 258.939 911.225C260.903 903.44 258.871 894.843 252.775 888.75C244.512 880.492 231.576 879.679 222.365 886.313C214.305 879.882 206.38 872.842 198.591 864.989C204.01 856.866 203.129 845.832 195.95 838.724C189.583 832.36 180.169 831.006 172.515 834.526C172.312 834.188 172.041 833.917 171.838 833.579C165.607 824.981 158.631 814.556 151.79 802.71C158.495 794.992 158.224 783.213 150.842 775.902C146.643 771.705 140.953 769.81 135.399 770.216C130.32 758.369 125.85 745.642 122.598 732.442C122.666 732.374 122.734 732.306 122.734 732.306C129.913 725.131 129.913 713.487 122.734 706.311C121.176 704.755 119.415 703.536 117.519 702.656C116.232 688.575 116.638 674.156 119.144 659.534C121.65 658.722 124.021 657.368 125.985 655.405C132.352 649.041 132.555 638.819 126.527 632.185C129.846 623.249 135.129 610.726 142.985 598.067C148.945 600.165 155.854 598.879 160.595 594.14C166.42 588.319 167.097 579.315 162.627 572.749C166.284 569.093 170.213 565.573 174.48 562.459C180.575 567.536 189.583 567.198 195.273 561.511C198.591 558.194 200.081 553.794 199.743 549.461C202.181 548.717 204.687 548.04 207.261 547.498C214.034 546.077 221.552 545.535 229.205 545.941C228.934 550.206 230.424 554.539 233.675 557.788C239.703 563.813 249.524 563.813 255.552 557.788C257.178 556.163 258.397 554.2 259.142 552.102C265.712 554.606 272.078 557.923 277.835 561.985C274.178 567.672 274.787 575.253 279.799 580.195C284.473 584.866 291.652 585.678 297.138 582.632C300.931 588.86 305.401 598.27 306.756 609.44C303.437 609.71 300.118 611.132 297.612 613.637C291.923 619.323 291.923 628.597 297.612 634.284C299.441 636.111 301.608 637.33 303.911 638.007C302.083 644.167 300.118 647.755 298.832 649.515C295.445 647.281 289.688 641.798 286.098 638.278C272.146 624.806 253.114 606.258 224.667 607.138C193.715 608.086 164.049 631.711 158.631 659.873C153.754 685.191 169.129 708.004 176.918 714.57C183.149 719.783 191.141 721.34 198.32 718.632C207.058 715.315 214.101 705.567 210.783 693.179C213.153 691.012 214.643 687.966 214.643 684.514C214.643 679.166 211.054 674.63 206.109 673.276C206.177 672.87 206.313 672.464 206.448 672.125C207.87 668.944 213.153 665.017 219.52 663.19C219.52 663.46 219.452 663.731 219.452 664.002C219.452 670.433 224.667 675.713 231.169 675.713C235.775 675.713 239.703 673.073 241.6 669.282C244.783 672.125 248.102 675.849 251.895 680.181C247.56 685.258 247.831 692.908 252.572 697.714C257.381 702.521 264.967 702.724 270.046 698.459C277.768 704.348 286.911 708.681 298.493 708.681C299.17 708.681 299.847 708.681 300.592 708.613C313.19 708.072 331.748 701.844 348.816 675.578C363.446 652.968 367.577 621.354 360.127 588.86C352.812 556.908 335.067 528.002 311.565 509.657C285.015 488.806 250.676 480.48 212.273 485.354C182.675 489.145 151.451 500.924 126.73 517.577C104.515 532.605 86.2276 552.711 72.5462 577.42C61.5739 597.187 53.3786 620.068 48.2989 645.318C39.494 688.982 42.2032 727.771 43.1514 740.498C47.012 794.857 65.6377 846.644 98.5544 894.437C116.841 920.906 139.395 945.75 163.778 966.261L169.468 971H403L333.577 944.057Z" fill="url(#paint3_linear_139_371)"/>
</g>
<g clip-path="url(#clip3_139_371)">
<path d="M641.423 940.057C641.288 933.22 643.794 926.315 649.009 921.103C659.168 910.948 675.627 910.948 685.786 921.103C686.125 921.441 686.396 921.78 686.734 922.118C696.013 918.056 705.834 913.115 716.061 907.225C714.097 899.44 716.129 890.843 722.225 884.75C730.488 876.492 743.424 875.679 752.635 882.313C760.695 875.882 768.62 868.842 776.409 860.989C770.99 852.866 771.871 841.832 779.05 834.724C785.417 828.36 794.831 827.006 802.485 830.526C802.688 830.188 802.959 829.917 803.162 829.579C809.393 820.981 816.369 810.556 823.21 798.71C816.505 790.992 816.776 779.213 824.158 771.902C828.357 767.705 834.047 765.81 839.601 766.216C844.68 754.369 849.15 741.642 852.402 728.442C852.334 728.374 852.266 728.306 852.266 728.306C845.087 721.131 845.087 709.487 852.266 702.311C853.824 700.755 855.585 699.536 857.481 698.656C858.768 684.575 858.362 670.156 855.856 655.534C853.35 654.722 850.979 653.368 849.015 651.405C842.648 645.041 842.445 634.819 848.473 628.185C845.154 619.249 839.871 606.726 832.015 594.067C826.055 596.165 819.146 594.879 814.405 590.14C808.58 584.319 807.903 575.315 812.373 568.749C808.716 565.093 804.787 561.573 800.52 558.459C794.425 563.536 785.417 563.198 779.727 557.511C776.409 554.194 774.919 549.794 775.257 545.461C772.819 544.717 770.313 544.04 767.739 543.498C760.966 542.077 753.448 541.535 745.795 541.941C746.066 546.206 744.576 550.539 741.325 553.788C735.297 559.813 725.476 559.813 719.448 553.788C717.822 552.163 716.603 550.2 715.858 548.102C709.288 550.606 702.922 553.923 697.165 557.985C700.822 563.672 700.213 571.253 695.201 576.195C690.527 580.866 683.348 581.678 677.862 578.632C674.069 584.86 669.599 594.27 668.244 605.44C671.563 605.71 674.882 607.132 677.388 609.637C683.077 615.323 683.077 624.597 677.388 630.284C675.559 632.111 673.392 633.33 671.089 634.007C672.917 640.167 674.882 643.755 676.168 645.515C679.555 643.281 685.312 637.798 688.902 634.278C702.854 620.806 721.886 602.258 750.333 603.138C781.285 604.086 810.951 627.711 816.369 655.873C821.246 681.191 805.871 704.004 798.082 710.57C791.851 715.783 783.859 717.34 776.68 714.632C767.942 711.315 760.899 701.567 764.217 689.179C761.847 687.012 760.357 683.966 760.357 680.514C760.357 675.166 763.946 670.63 768.891 669.276C768.823 668.87 768.687 668.464 768.552 668.125C767.13 664.944 761.847 661.017 755.48 659.19C755.48 659.46 755.548 659.731 755.548 660.002C755.548 666.433 750.333 671.713 743.831 671.713C739.225 671.713 735.297 669.073 733.4 665.282C730.217 668.125 726.898 671.849 723.105 676.181C727.44 681.258 727.169 688.908 722.428 693.714C717.619 698.521 710.033 698.724 704.954 694.459C697.232 700.348 688.089 704.681 676.507 704.681C675.83 704.681 675.153 704.681 674.408 704.613C661.81 704.072 643.252 697.844 626.184 671.578C611.554 648.968 607.423 617.354 614.873 584.86C622.188 552.908 639.933 524.002 663.435 505.657C689.985 484.806 724.324 476.48 762.727 481.354C792.325 485.145 823.549 496.924 848.27 513.577C870.485 528.605 888.772 548.711 902.454 573.42C913.426 593.187 921.621 616.068 926.701 641.318C935.506 684.982 932.797 723.771 931.849 736.498C927.988 790.857 909.362 842.644 876.446 890.437C858.159 916.906 835.605 941.75 811.222 962.261L805.532 967H572L641.423 940.057Z" fill="url(#paint4_linear_139_371)"/>
</g>
<path d="M199.325 425.738C199.806 422.156 200.15 418.505 200.425 414.785C201.388 402.317 201.182 390.469 200.357 379.585C204.897 376.83 207.993 371.801 207.993 366.083C207.993 358.782 203.04 352.651 196.297 350.86C194.99 344.385 193.477 338.529 192.101 333.501C188.798 321.928 185.359 313.248 183.088 307.944C177.997 296.303 174.901 293.065 172.425 290.998C167.265 286.659 160.385 285.005 153.918 286.59C148.552 287.899 143.873 291.412 141.053 296.234C136.443 304.087 138.37 311.044 140.021 317.244C142.497 326.406 148.276 347.829 146.694 375.107C145.869 389.298 141.534 418.643 121.789 455.083C109.062 478.573 98.1916 489.526 78.5154 509.365C68.9525 519.009 57.1192 530.995 42.4652 547.045C-6.58771 600.707 -31.1486 627.572 -44.7706 660.706C-67.9555 717.261 -61.4885 770.509 -54.6087 826.857L-54.5399 827.27C-49.3112 870.324 -38.8539 912.826 -23.5808 953.606L-18.5586 967.039H105.415L84.7072 935.145C73.0803 917.235 63.0358 898.429 54.5737 879.003C57.3944 874.87 59.0455 869.91 59.0455 864.537C59.0455 852.689 50.9962 842.701 40.0573 839.739C39.7133 838.499 39.3005 837.259 38.9565 836.088C34.3471 820.589 30.1504 806.398 27.1233 792.552C32.9023 788.213 36.6174 781.255 36.6174 773.471C36.6174 763.758 30.8384 755.354 22.5138 751.634C22.5826 743.85 23.2706 735.929 24.6466 727.662C25.4721 722.634 26.5729 717.881 27.8801 713.128C37.787 710.372 45.0108 701.21 45.0108 690.464C45.0108 686.331 43.9788 682.474 42.1212 679.098C48.3131 668.008 55.8808 656.848 64.8934 644.724C65.031 644.724 65.2374 644.724 65.3749 644.724C77.0018 644.724 86.4271 635.287 86.4271 623.646C86.4271 621.648 86.1519 619.65 85.6015 617.79C87.9407 614.828 90.2798 611.797 92.7565 608.697C99.4299 600.293 105.14 593.543 110.231 587.756C111.814 588.17 113.465 588.445 115.185 588.445C125.642 588.445 134.173 579.972 134.173 569.433C134.173 567.366 133.829 565.369 133.21 563.44C142.429 553.727 150.753 544.014 160.867 527.206C171.049 526.862 179.098 518.458 179.098 508.263C179.098 504.818 178.204 501.581 176.552 498.825C182.744 486.357 189.005 471.478 193.683 454.119C201.526 453.774 207.787 447.299 207.787 439.377C207.924 433.247 204.347 428.08 199.325 425.738Z" fill="url(#paint5_linear_139_371)"/>
<path d="M1007.38 379.304C999.97 369.02 989.223 359.67 977.942 353.794C962.055 345.446 945.567 343.776 930.281 348.919C898.44 359.604 887.626 394.397 886.291 411.292C885.223 425.45 891.765 431.928 897.506 434.866C905.249 438.873 916.263 437.871 923.272 428.722C923.673 428.789 924.073 428.789 924.474 428.789C932.217 428.789 938.558 422.512 938.558 414.698C938.558 412.294 937.958 409.957 936.89 408.02C938.425 406.618 940.16 405.549 941.896 405.082C946.969 403.813 954.445 406.551 959.519 411.159C955.647 413.697 953.11 417.971 953.11 422.912C953.11 430.192 958.584 436.135 965.66 436.87C964.659 442.68 962.589 448.623 959.852 453.899C957.85 452.83 955.58 452.229 953.177 452.229C945.434 452.229 939.092 458.507 939.092 466.32C939.092 468.658 939.693 470.861 940.694 472.865C934.553 475.469 926.81 477.206 916.263 479.409C914.928 479.677 913.526 479.944 912.125 480.278C909.187 476.404 904.515 473.867 899.241 473.867C891.098 473.867 884.356 479.944 883.221 487.757C877.413 489.694 871.339 492.031 864.997 494.903C862.528 493.367 859.591 492.432 856.453 492.432C847.508 492.432 840.299 499.711 840.299 508.593V508.66C839.498 509.194 838.697 509.728 837.896 510.262C830.62 515.204 820.941 521.816 811.329 530.43C809.927 530.096 808.525 529.896 806.99 529.896C797.578 529.896 789.901 537.576 789.901 546.992C789.901 549.263 790.368 551.4 791.103 553.336C784.294 563.487 778.954 575.307 776.617 589.064C770.409 592.203 766.137 598.681 766.137 606.16C766.137 614.041 770.877 620.786 777.619 623.724C780.556 637.614 786.163 650.971 792.237 664.594C789.3 668.2 787.565 672.741 787.565 677.75C787.565 689.37 796.977 698.719 808.525 698.719C809.126 698.719 809.727 698.719 810.327 698.653C811.195 699.988 812.13 701.257 812.997 702.593C817.67 709.471 822.142 716.016 828.617 729.706L829.018 730.507C829.352 731.175 829.686 731.91 830.019 732.578C824.679 736.384 821.208 742.662 821.208 749.674C821.208 761.294 830.62 770.71 842.235 770.71C843.103 770.71 844.037 770.643 844.905 770.509C846.24 776.253 847.108 782.129 847.241 788.474C847.375 793.082 847.508 800.427 842.235 817.523C841.567 817.457 840.967 817.457 840.299 817.457C827.683 817.457 817.47 827.674 817.47 840.296C817.47 847.642 820.941 854.186 826.415 858.394C821.875 868.611 816.936 878.762 811.662 888.779C810.795 888.712 809.927 888.646 809.059 888.646C795.308 888.646 784.16 899.798 784.16 913.555C784.16 918.964 785.896 923.973 788.833 928.047C787.164 930.651 785.429 933.322 783.76 935.927L763 966.98H914.928L919.868 954.158C942.096 896.459 947.503 841.698 936.022 791.412C922.204 730.708 890.964 678.885 889.629 676.682C883.688 666.865 878.014 658.584 873.008 651.238C859.257 631.07 853.182 621.587 853.65 607.229C854.384 585.258 870.071 568.229 875.945 561.818C894.035 542.184 913.66 537.509 934.42 532.567C956.782 527.225 982.081 521.215 1001.51 495.971C1013.65 480.077 1021.2 459.709 1022.67 438.539C1024.27 416.167 1018.86 395.131 1007.38 379.304Z" fill="url(#paint6_linear_139_371)"/>
<defs>
<linearGradient id="paint0_linear_139_371" x1="490" y1="0" x2="489.999" y2="959" gradientUnits="userSpaceOnUse">
<stop stop-opacity="0"/>
<stop offset="0.25" stop-opacity="0.1"/>
<stop offset="0.625" stop-opacity="0.5625"/>
<stop offset="0.729167" stop-opacity="0.82"/>
<stop offset="1"/>
</linearGradient>
<linearGradient id="paint1_linear_139_371" x1="632.496" y1="259.926" x2="632.496" y2="967.073" gradientUnits="userSpaceOnUse">
<stop stop-color="#005ECE"/>
<stop offset="1" stop-color="#272727"/>
</linearGradient>
<linearGradient id="paint2_linear_139_371" x1="379.495" y1="197" x2="379.495" y2="966.988" gradientUnits="userSpaceOnUse">
<stop stop-color="#005ECE"/>
<stop offset="1" stop-color="#272727"/>
</linearGradient>
<linearGradient id="paint3_linear_139_371" x1="222.503" y1="484" x2="222.503" y2="971" gradientUnits="userSpaceOnUse">
<stop stop-color="#005ECE"/>
<stop offset="1" stop-color="#272727"/>
</linearGradient>
<linearGradient id="paint4_linear_139_371" x1="752.497" y1="480" x2="752.497" y2="967" gradientUnits="userSpaceOnUse">
<stop stop-color="#005ECE"/>
<stop offset="1" stop-color="#272727"/>
</linearGradient>
<linearGradient id="paint5_linear_139_371" x1="73.4966" y1="286" x2="73.4966" y2="967.039" gradientUnits="userSpaceOnUse">
<stop stop-color="#005ECE"/>
<stop offset="1" stop-color="#272727"/>
</linearGradient>
<linearGradient id="paint6_linear_139_371" x1="892.971" y1="346" x2="892.971" y2="966.98" gradientUnits="userSpaceOnUse">
<stop stop-color="#005ECE"/>
<stop offset="1" stop-color="#272727"/>
</linearGradient>
<clipPath id="clip0_139_371">
<rect width="321" height="707" fill="white" transform="translate(471.993 260)"/>
</clipPath>
<clipPath id="clip1_139_371">
<rect width="343" height="770" fill="white" transform="translate(147.993 197)"/>
</clipPath>
<clipPath id="clip2_139_371">
<rect width="361" height="487" fill="white" transform="translate(6 484)"/>
</clipPath>
<clipPath id="clip3_139_371">
<rect width="361" height="487" fill="white" transform="matrix(-1 0 0 1 972.993 480)"/>
</clipPath>
</defs>
</svg>
