<svg width="1440" height="940" viewBox="0 0 1440 959" fill="none" xmlns="http://www.w3.org/2000/svg">
<g clip-path="url(#clip0_0_1)">
<path d="M1044.71 457.315C1043.53 432.251 1039.19 410.054 1031.84 391.238C1023.24 369.335 1010.89 353.312 995.236 343.61C973.185 330.085 952.309 334.054 933.933 337.583C915.483 341.111 896.371 344.786 867.63 335.671C860.868 333.54 849.989 330.085 838.743 324.132C838.963 323.029 839.037 321.927 839.037 320.824C839.037 311.343 831.392 303.699 821.91 303.699C819.117 303.699 816.397 304.36 814.045 305.61C809.414 300.538 805.297 294.658 802.137 287.823C800.887 285.177 799.858 282.384 798.902 279.444C801.916 276.798 803.827 272.829 803.827 268.492C803.827 262.392 800.078 257.173 794.786 254.968C794.419 243.502 796.33 232.33 800.74 223.73C802.945 225.641 805.885 226.817 809.046 226.817C816.103 226.817 821.763 221.084 821.763 214.102C821.763 211.897 821.175 209.839 820.219 208.001C826.247 206.458 831.318 206.752 832.201 206.825C837.787 207.266 843.006 209.104 847.637 211.676C846.534 213.587 845.946 215.866 845.946 218.218C845.946 225.641 851.974 231.668 859.398 231.668C862.558 231.668 865.425 230.566 867.704 228.802C868.292 229.537 868.88 230.125 869.321 230.713C872.408 234.388 877.627 240.489 887.33 241.077L896.812 241.591L903.722 235.123C907.103 231.962 914.307 223.142 908.647 208.883C906 202.121 897.106 185.069 882.92 169.267C863.882 148.099 842.05 136.927 819.705 136.927C819.631 136.927 819.631 136.927 819.558 136.927C793.022 137.074 768.03 152.656 749.286 180.953C733.85 204.179 724.441 234.02 724 260.775C723.044 324.058 772.514 376.685 821.983 400.719C859.324 418.874 891.593 417.624 915.189 416.669C936.652 415.86 944.664 416.081 950.177 422.402C953.485 426.15 955.543 431.295 956.646 437.543C949.736 441.071 945.032 448.274 945.032 456.506C945.032 463.93 948.854 470.471 954.588 474.293C952.456 484.436 949.295 495.314 945.326 506.266C932.683 506.854 922.539 517.291 922.539 530.153C922.539 535.887 924.597 541.178 927.979 545.368C925.994 549.117 923.936 552.792 921.878 556.393C915.924 566.536 910.117 574.842 904.383 582.045C901.884 581.163 899.164 580.648 896.371 580.648C883.434 580.648 872.923 591.159 872.923 604.095C872.923 607.182 873.511 610.122 874.613 612.768C862.411 624.087 849.915 635.626 838.155 652.458C836.317 652.017 834.332 651.797 832.348 651.797C817.94 651.797 806.179 663.483 806.179 677.963C806.179 685.68 809.487 692.589 814.78 697.367C809.34 711.773 805.371 726.914 802.872 742.643C794.419 747.273 788.685 756.241 788.685 766.604C788.685 775.571 793.022 783.509 799.711 788.507C799.858 800.341 800.74 812.468 802.357 824.89L804.856 844.073H969.509L957.16 813.718C946.649 787.919 942.606 762.415 945.179 737.939C948.487 705.672 962.159 686.783 979.506 662.895C990.753 647.313 1003.54 629.746 1014.79 606.373C1036.11 562.053 1047.06 507.736 1044.71 457.315Z" fill="url(#paint0_linear_0_1)"/>
</g>
<path d="M660.272 800.973C655.938 798.692 651.68 796.412 647.498 793.979C648.639 791.242 649.247 788.278 649.247 785.161C649.247 772.618 639.058 762.431 626.512 762.431C620.125 762.431 614.422 765.016 610.24 769.273C597.542 759.618 585.529 749.052 574.351 737.649C572.526 735.748 570.397 733.62 568.116 731.263C570.473 727.538 571.766 723.205 571.766 718.568C571.766 705.341 561.045 694.622 547.815 694.622C544.621 694.622 541.58 695.23 538.842 696.37C528.197 681.471 517.4 663.226 508.504 641.408C515.195 637.379 519.681 630.082 519.681 621.643C519.681 608.948 509.34 598.609 496.642 598.609C495.426 598.609 494.285 598.686 493.144 598.838C486.909 577.476 483.944 555.659 490.559 536.578C493.22 537.794 496.186 538.478 499.303 538.478C510.937 538.478 520.365 529.052 520.365 517.421C520.365 512.556 518.693 508.07 515.955 504.498C523.255 499.252 530.554 495.603 535.649 493.019L535.801 492.943C539.603 491.042 543.176 489.446 546.598 488.153C550.476 493.171 556.483 496.44 563.326 496.44C572.983 496.44 581.119 489.902 583.628 481.084C597.77 479.867 613.51 477.815 628.185 464.967C646.206 449.308 655.026 424.449 654.342 391.153C653.961 367.435 648.791 344.857 646.358 333.986C636.929 292.708 620.353 267.925 605.678 246.032C591.231 224.442 578.685 205.818 572.755 172.065C567.812 143.71 570.093 119.156 571.234 107.373C572.146 98.0982 572.907 90.0401 566.291 82.2101C562.414 77.4969 556.635 74.5322 550.476 74.076C543.252 73.5439 536.333 76.3566 531.391 81.83C529.11 84.3387 526.6 87.9876 523.711 96.8058C523.407 96.8058 523.103 96.7298 522.875 96.7298C515.423 96.7298 509.416 102.735 509.416 110.185C509.416 115.735 512.762 120.448 517.552 122.5C517.324 123.717 517.096 125.009 516.944 126.301C515.879 133.371 514.891 141.885 514.435 151.54C507.972 152.984 503.181 158.762 503.181 165.679C503.181 172.749 508.2 178.603 514.815 179.895C515.347 187.193 516.336 194.795 517.78 202.625C519.605 212.507 521.962 221.173 524.7 228.927C522.038 231.74 520.365 235.617 520.365 239.798C520.365 248.54 527.437 255.61 536.181 255.61C536.409 255.61 536.561 255.61 536.789 255.61C540.971 263.06 545.381 269.902 549.792 276.592C552.073 280.088 554.354 283.585 556.559 287.158C553.745 290.123 551.997 294.152 551.997 298.637C551.997 307.912 559.524 315.437 568.801 315.437C569.561 315.437 570.321 315.361 571.006 315.285C574.427 323.8 577.469 333.53 579.978 345.313C580.738 348.962 581.651 353.219 582.487 357.932C576.784 361.125 572.907 367.207 572.907 374.276C572.907 382.334 578.001 389.176 585.148 391.837C584.464 399.591 582.487 405.216 579.37 407.953C578.533 408.713 577.849 408.941 569.029 409.473C560.132 409.929 548.043 410.614 530.858 414.795C517.704 417.988 477.633 427.794 446.61 457.822C414.675 488.762 407.299 526.771 403.726 545.016C389.431 617.918 419.465 678.43 441.364 722.597C462.122 764.332 489.571 802.874 523.179 837.158L529.87 844H743L660.272 800.973Z" fill="url(#paint1_linear_0_1)"/>
<g clip-path="url(#clip1_0_1)">
<path d="M458.577 817.057C458.712 810.22 456.206 803.315 450.991 798.103C440.832 787.948 424.373 787.948 414.214 798.103C413.875 798.441 413.604 798.78 413.266 799.118C403.987 795.056 394.166 790.115 383.939 784.225C385.903 776.44 383.871 767.843 377.775 761.75C369.512 753.492 356.576 752.679 347.365 759.313C339.305 752.882 331.38 745.842 323.591 737.989C329.01 729.866 328.129 718.832 320.95 711.724C314.583 705.36 305.169 704.006 297.515 707.526C297.312 707.188 297.041 706.917 296.838 706.579C290.607 697.981 283.631 687.556 276.79 675.71C283.495 667.992 283.224 656.213 275.842 648.902C271.643 644.705 265.953 642.81 260.399 643.216C255.32 631.369 250.85 618.642 247.598 605.442C247.666 605.374 247.734 605.306 247.734 605.306C254.913 598.131 254.913 586.487 247.734 579.311C246.176 577.755 244.415 576.536 242.519 575.656C241.232 561.575 241.638 547.156 244.144 532.534C246.65 531.722 249.021 530.368 250.985 528.405C257.352 522.041 257.555 511.819 251.527 505.185C254.846 496.249 260.129 483.726 267.985 471.067C273.945 473.165 280.854 471.879 285.595 467.14C291.42 461.319 292.097 452.315 287.627 445.749C291.284 442.093 295.213 438.573 299.48 435.459C305.575 440.536 314.583 440.198 320.273 434.511C323.591 431.194 325.081 426.794 324.743 422.461C327.181 421.717 329.687 421.04 332.261 420.498C339.034 419.077 346.552 418.535 354.205 418.941C353.934 423.206 355.424 427.539 358.675 430.788C364.703 436.813 374.524 436.813 380.552 430.788C382.178 429.163 383.397 427.2 384.142 425.102C390.712 427.606 397.078 430.923 402.835 434.985C399.178 440.672 399.787 448.253 404.799 453.195C409.473 457.866 416.652 458.678 422.138 455.632C425.931 461.86 430.401 471.27 431.756 482.44C428.437 482.71 425.118 484.132 422.612 486.637C416.923 492.323 416.923 501.597 422.612 507.284C424.441 509.111 426.608 510.33 428.911 511.007C427.083 517.167 425.118 520.755 423.832 522.515C420.445 520.281 414.688 514.798 411.098 511.278C397.146 497.806 378.114 479.258 349.667 480.138C318.715 481.086 289.049 504.711 283.631 532.873C278.754 558.191 294.129 581.004 301.918 587.57C308.149 592.783 316.141 594.34 323.32 591.632C332.058 588.315 339.101 578.567 335.783 566.179C338.153 564.012 339.643 560.966 339.643 557.514C339.643 552.166 336.054 547.63 331.109 546.276C331.177 545.87 331.313 545.464 331.448 545.125C332.87 541.944 338.153 538.017 344.52 536.19C344.52 536.46 344.452 536.731 344.452 537.002C344.452 543.433 349.667 548.713 356.169 548.713C360.775 548.713 364.703 546.073 366.6 542.282C369.783 545.125 373.102 548.849 376.895 553.181C372.56 558.258 372.831 565.908 377.572 570.714C382.381 575.521 389.967 575.724 395.046 571.459C402.768 577.348 411.911 581.681 423.493 581.681C424.17 581.681 424.847 581.681 425.592 581.613C438.19 581.072 456.748 574.844 473.816 548.578C488.446 525.968 492.577 494.354 485.127 461.86C477.812 429.908 460.067 401.002 436.565 382.657C410.015 361.806 375.676 353.48 337.273 358.354C307.675 362.145 276.451 373.924 251.73 390.577C229.515 405.605 211.228 425.711 197.546 450.42C186.574 470.187 178.379 493.068 173.299 518.318C164.494 561.982 167.203 600.771 168.151 613.498C172.012 667.857 190.638 719.644 223.554 767.437C241.841 793.906 264.395 818.75 288.778 839.261L294.468 844H528L458.577 817.057Z" fill="url(#paint2_linear_0_1)"/>
</g>
<g clip-path="url(#clip2_0_1)">
<path d="M933.423 817.057C933.288 810.22 935.794 803.315 941.009 798.103C951.168 787.948 967.627 787.948 977.786 798.103C978.125 798.441 978.396 798.78 978.734 799.118C988.013 795.056 997.834 790.115 1008.06 784.225C1006.1 776.44 1008.13 767.843 1014.22 761.75C1022.49 753.492 1035.42 752.679 1044.64 759.313C1052.7 752.882 1060.62 745.842 1068.41 737.989C1062.99 729.866 1063.87 718.832 1071.05 711.724C1077.42 705.36 1086.83 704.006 1094.48 707.526C1094.69 707.188 1094.96 706.917 1095.16 706.579C1101.39 697.981 1108.37 687.556 1115.21 675.71C1108.5 667.992 1108.78 656.213 1116.16 648.902C1120.36 644.705 1126.05 642.81 1131.6 643.216C1136.68 631.369 1141.15 618.642 1144.4 605.442C1144.33 605.374 1144.27 605.306 1144.27 605.306C1137.09 598.131 1137.09 586.487 1144.27 579.311C1145.82 577.755 1147.58 576.536 1149.48 575.656C1150.77 561.575 1150.36 547.156 1147.86 532.534C1145.35 531.722 1142.98 530.368 1141.02 528.405C1134.65 522.041 1134.45 511.819 1140.47 505.185C1137.15 496.249 1131.87 483.726 1124.01 471.067C1118.05 473.165 1111.15 471.879 1106.41 467.14C1100.58 461.319 1099.9 452.315 1104.37 445.749C1100.72 442.093 1096.79 438.573 1092.52 435.459C1086.42 440.536 1077.42 440.198 1071.73 434.511C1068.41 431.194 1066.92 426.794 1067.26 422.461C1064.82 421.717 1062.31 421.04 1059.74 420.498C1052.97 419.077 1045.45 418.535 1037.79 418.941C1038.07 423.206 1036.58 427.539 1033.32 430.788C1027.3 436.813 1017.48 436.813 1011.45 430.788C1009.82 429.163 1008.6 427.2 1007.86 425.102C1001.29 427.606 994.922 430.923 989.165 434.985C992.822 440.672 992.213 448.253 987.201 453.195C982.527 457.866 975.348 458.678 969.862 455.632C966.069 461.86 961.599 471.27 960.244 482.44C963.563 482.71 966.882 484.132 969.388 486.637C975.077 492.323 975.077 501.597 969.388 507.284C967.559 509.111 965.392 510.33 963.089 511.007C964.917 517.167 966.882 520.755 968.168 522.515C971.555 520.281 977.312 514.798 980.902 511.278C994.854 497.806 1013.89 479.258 1042.33 480.138C1073.29 481.086 1102.95 504.711 1108.37 532.873C1113.25 558.191 1097.87 581.004 1090.08 587.57C1083.85 592.783 1075.86 594.34 1068.68 591.632C1059.94 588.315 1052.9 578.567 1056.22 566.179C1053.85 564.012 1052.36 560.966 1052.36 557.514C1052.36 552.166 1055.95 547.63 1060.89 546.276C1060.82 545.87 1060.69 545.464 1060.55 545.125C1059.13 541.944 1053.85 538.017 1047.48 536.19C1047.48 536.46 1047.55 536.731 1047.55 537.002C1047.55 543.433 1042.33 548.713 1035.83 548.713C1031.22 548.713 1027.3 546.073 1025.4 542.282C1022.22 545.125 1018.9 548.849 1015.11 553.181C1019.44 558.258 1019.17 565.908 1014.43 570.714C1009.62 575.521 1002.03 575.724 996.954 571.459C989.232 577.348 980.089 581.681 968.507 581.681C967.83 581.681 967.153 581.681 966.408 581.613C953.81 581.072 935.252 574.844 918.184 548.578C903.554 525.968 899.423 494.354 906.873 461.86C914.188 429.908 931.933 401.002 955.435 382.657C981.985 361.806 1016.32 353.48 1054.73 358.354C1084.33 362.145 1115.55 373.924 1140.27 390.577C1162.49 405.605 1180.77 425.711 1194.45 450.42C1205.43 470.187 1213.62 493.068 1218.7 518.318C1227.51 561.982 1224.8 600.771 1223.85 613.498C1219.99 667.857 1201.36 719.644 1168.45 767.437C1150.16 793.906 1127.6 818.75 1103.22 839.261L1097.53 844H864L933.423 817.057Z" fill="url(#paint3_linear_0_1)"/>
</g>
<path d="M1424.38 256.324C1416.97 246.04 1406.22 236.69 1394.94 230.813C1379.06 222.466 1362.57 220.796 1347.28 225.938C1315.44 236.623 1304.63 271.416 1303.29 288.312C1302.22 302.47 1308.77 308.948 1314.51 311.886C1322.25 315.893 1333.26 314.891 1340.27 305.742C1340.67 305.809 1341.07 305.809 1341.47 305.809C1349.22 305.809 1355.56 299.531 1355.56 291.718C1355.56 289.314 1354.96 286.977 1353.89 285.04C1355.42 283.637 1357.16 282.569 1358.9 282.102C1363.97 280.833 1371.45 283.571 1376.52 288.179C1372.65 290.716 1370.11 294.99 1370.11 299.932C1370.11 307.211 1375.58 313.155 1382.66 313.889C1381.66 319.699 1379.59 325.643 1376.85 330.919C1374.85 329.85 1372.58 329.249 1370.18 329.249C1362.43 329.249 1356.09 335.527 1356.09 343.34C1356.09 345.677 1356.69 347.881 1357.69 349.885C1351.55 352.489 1343.81 354.225 1333.26 356.429C1331.93 356.696 1330.53 356.963 1329.12 357.297C1326.19 353.424 1321.51 350.886 1316.24 350.886C1308.1 350.886 1301.36 356.963 1300.22 364.777C1294.41 366.714 1288.34 369.051 1282 371.922C1279.53 370.386 1276.59 369.452 1273.45 369.452C1264.51 369.452 1257.3 376.731 1257.3 385.613V385.679C1256.5 386.214 1255.7 386.748 1254.9 387.282C1247.62 392.224 1237.94 398.835 1228.33 407.45C1226.93 407.116 1225.53 406.916 1223.99 406.916C1214.58 406.916 1206.9 414.596 1206.9 424.012C1206.9 426.282 1207.37 428.419 1208.1 430.356C1201.29 440.507 1195.95 452.327 1193.62 466.084C1187.41 469.223 1183.14 475.701 1183.14 483.18C1183.14 491.06 1187.88 497.805 1194.62 500.744C1197.56 514.634 1203.16 527.991 1209.24 541.614C1206.3 545.22 1204.56 549.761 1204.56 554.77C1204.56 566.39 1213.98 575.739 1225.53 575.739C1226.13 575.739 1226.73 575.739 1227.33 575.672C1228.2 577.008 1229.13 578.277 1230 579.613C1234.67 586.491 1239.14 593.036 1245.62 606.726L1246.02 607.527C1246.35 608.195 1246.69 608.93 1247.02 609.597C1241.68 613.404 1238.21 619.681 1238.21 626.693C1238.21 638.313 1247.62 647.73 1259.23 647.73C1260.1 647.73 1261.04 647.663 1261.91 647.529C1263.24 653.272 1264.11 659.149 1264.24 665.493C1264.37 670.101 1264.51 677.447 1259.23 694.543C1258.57 694.476 1257.97 694.477 1257.3 694.477C1244.68 694.477 1234.47 704.694 1234.47 717.316C1234.47 724.662 1237.94 731.206 1243.41 735.413C1238.88 745.631 1233.94 755.782 1228.66 765.799C1227.79 765.732 1226.93 765.665 1226.06 765.665C1212.31 765.665 1201.16 776.818 1201.16 790.575C1201.16 795.984 1202.9 800.993 1205.83 805.066C1204.16 807.671 1202.43 810.342 1200.76 812.947L1180 844H1331.93L1336.87 831.178C1359.1 773.479 1364.5 718.718 1353.02 668.432C1339.2 607.727 1307.96 555.905 1306.63 553.701C1300.69 543.884 1295.01 535.604 1290.01 528.258C1276.26 508.09 1270.18 498.607 1270.65 484.249C1271.38 462.278 1287.07 445.248 1292.94 438.837C1311.03 419.204 1330.66 414.529 1351.42 409.587C1373.78 404.245 1399.08 398.234 1418.51 372.991C1430.65 357.097 1438.2 336.729 1439.67 315.559C1441.27 293.187 1435.86 272.151 1424.38 256.324Z" fill="url(#paint4_linear_0_1)"/>
<path d="M305.331 302.768C305.813 299.186 306.157 295.535 306.432 291.816C307.395 279.347 307.189 267.499 306.363 256.615C310.904 253.86 314 248.831 314 243.114C314 235.812 309.046 229.681 302.304 227.89C300.997 221.415 299.484 215.56 298.108 210.531C294.805 198.958 291.365 190.279 289.095 184.975C284.004 173.333 280.908 170.095 278.431 168.029C273.272 163.689 266.392 162.036 259.925 163.62C254.559 164.929 249.88 168.442 247.06 173.264C242.45 181.117 244.376 188.074 246.028 194.274C248.504 203.436 254.283 224.859 252.701 252.138C251.875 266.328 247.541 295.673 227.796 332.114C215.068 355.603 204.198 366.556 184.522 386.395C174.959 396.039 163.126 408.025 148.472 424.075C99.4191 477.737 74.8583 504.602 61.2363 537.736C38.0514 594.291 44.5184 647.539 51.3982 703.887L51.467 704.301C56.6956 747.354 67.1529 789.856 82.426 830.636L87.4483 844.069H211.422L190.714 812.175C179.087 794.265 169.043 775.459 160.581 756.034C163.401 751.901 165.052 746.941 165.052 741.568C165.052 729.719 157.003 719.731 146.064 716.769C145.72 715.529 145.307 714.289 144.963 713.118C140.354 697.619 136.157 683.429 133.13 669.583C138.909 665.243 142.624 658.285 142.624 650.501C142.624 640.789 136.845 632.384 128.521 628.665C128.589 620.881 129.277 612.959 130.653 604.693C131.479 599.664 132.58 594.911 133.887 590.158C143.794 587.402 151.018 578.241 151.018 567.495C151.018 563.361 149.986 559.504 148.128 556.128C154.32 545.038 161.888 533.879 170.9 521.755C171.038 521.755 171.244 521.755 171.382 521.755C183.009 521.755 192.434 512.317 192.434 500.676C192.434 498.678 192.159 496.68 191.608 494.821C193.948 491.859 196.287 488.828 198.763 485.728C205.437 477.324 211.147 470.573 216.238 464.787C217.82 465.2 219.472 465.475 221.192 465.475C231.649 465.475 240.18 457.003 240.18 446.463C240.18 444.397 239.836 442.399 239.217 440.47C248.435 430.757 256.76 421.044 266.873 404.236C277.055 403.892 285.105 395.488 285.105 385.293C285.105 381.849 284.21 378.611 282.559 375.856C288.751 363.387 295.012 348.508 299.69 331.149C307.533 330.805 313.794 324.329 313.794 316.408C313.931 310.277 310.354 305.11 305.331 302.768Z" fill="url(#paint5_linear_0_1)"/>
<rect x="-1" width="1448" height="959" fill="url(#paint6_linear_0_1)"/>
<defs>
<linearGradient id="paint0_linear_0_1" x1="884.503" y1="136.927" x2="884.503" y2="844.073" gradientUnits="userSpaceOnUse">
<stop stop-color="#005ECE"/>
<stop offset="1" stop-color="#272727"/>
</linearGradient>
<linearGradient id="paint1_linear_0_1" x1="571.505" y1="74.0122" x2="571.505" y2="844" gradientUnits="userSpaceOnUse">
<stop stop-color="#005ECE"/>
<stop offset="1" stop-color="#272727"/>
</linearGradient>
<linearGradient id="paint2_linear_0_1" x1="347.503" y1="357" x2="347.503" y2="844" gradientUnits="userSpaceOnUse">
<stop stop-color="#005ECE"/>
<stop offset="1" stop-color="#272727"/>
</linearGradient>
<linearGradient id="paint3_linear_0_1" x1="1044.5" y1="357" x2="1044.5" y2="844" gradientUnits="userSpaceOnUse">
<stop stop-color="#005ECE"/>
<stop offset="1" stop-color="#272727"/>
</linearGradient>
<linearGradient id="paint4_linear_0_1" x1="1309.97" y1="223.02" x2="1309.97" y2="844" gradientUnits="userSpaceOnUse">
<stop stop-color="#005ECE"/>
<stop offset="1" stop-color="#272727"/>
</linearGradient>
<linearGradient id="paint5_linear_0_1" x1="179.503" y1="163.03" x2="179.503" y2="844.069" gradientUnits="userSpaceOnUse">
<stop stop-color="#005ECE"/>
<stop offset="1" stop-color="#272727"/>
</linearGradient>
<linearGradient id="paint6_linear_0_1" x1="723" y1="0" x2="723" y2="959" gradientUnits="userSpaceOnUse">
<stop stop-opacity="0"/>
<stop offset="0.25" stop-opacity="0.1"/>
<stop offset="0.625" stop-opacity="0.5625"/>
<stop offset="0.729167" stop-opacity="0.82"/>
<stop offset="1"/>
</linearGradient>
<clipPath id="clip0_0_1">
<rect width="321" height="707" fill="white" transform="translate(724 137)"/>
</clipPath>
<clipPath id="clip1_0_1">
<rect width="361" height="487" fill="white" transform="translate(167 357)"/>
</clipPath>
<clipPath id="clip2_0_1">
<rect width="361" height="487" fill="white" transform="matrix(-1 0 0 1 1225 357)"/>
</clipPath>
</defs>
</svg>
