<svg width="107" height="107" viewBox="0 0 107 107" fill="none" xmlns="http://www.w3.org/2000/svg">
<path d="M53.5 0C23.9176 0 0 23.9176 0 53.5C0 83.0824 23.9176 107 53.5 107C83.0824 107 107 83.0824 107 53.5C107 23.9176 83.0824 0 53.5 0ZM41.7929 68.9835V49.5977C39.0235 49.5977 37.0094 49.5977 34.6177 49.5977C34.6177 46.4506 34.6177 43.6812 34.6177 40.5341C40.0306 39.0235 44.8141 33.2329 46.5765 27.0647C47.2059 24.4212 47.3318 22.5329 47.3318 22.5329C47.3318 22.5329 55.64 22.5329 57.6541 22.5329C57.6541 28.0718 57.6541 33.6106 57.6541 39.0235C61.8082 39.0235 65.5847 39.0235 69.613 39.0235V49.4718C65.7106 49.4718 61.8082 49.4718 57.5282 49.4718C57.5282 51.6118 57.5282 53.7518 57.5282 55.5141C57.5282 59.5424 57.5282 63.5706 57.5282 67.5988C57.5282 78.2988 67.8506 73.8929 68.7318 73.7671L71.7529 83.5859C69.1094 86.2294 41.7929 92.9012 41.7929 68.9835Z" fill="white"/>
</svg>
