<svg width="101" height="110" viewBox="0 0 101 110" fill="none" xmlns="http://www.w3.org/2000/svg">
<path d="M50.5 0C22.5765 0 0 24.5882 0 55C0 85.4118 22.5765 110 50.5 110C78.4235 110 101 85.4118 101 55C101 24.5882 78.4235 0 50.5 0ZM73.0765 42.4471C73.0765 42.9647 73.0765 43.4824 73.0765 44.1294C73.0765 60.8235 61.4318 80.1059 40.0435 80.1059C33.7459 80.1059 27.5671 78.1647 22.22 74.4118C23.1706 74.5412 24.1212 74.5412 24.9529 74.5412C30.1812 74.5412 35.2906 72.6 39.3306 69.1059C34.34 68.9765 30.0623 65.4824 28.5176 60.3059C30.3 60.6941 32.0824 60.5647 33.7459 60.0471C28.28 58.8824 24.4777 53.7059 24.4777 47.6235V47.4941C26.1412 48.5294 27.9235 49.0471 29.7059 49.0471C24.5965 45.2941 23.0518 37.9176 26.1412 32.2235C32.0824 40.1176 40.7565 44.9059 50.0247 45.4235C49.7871 44.5176 49.7871 43.4824 49.6683 42.5765C49.6683 39.0824 50.9753 35.7176 53.3518 33.3882C57.9859 28.6 65.353 28.8588 69.7494 33.9059C72.3635 33.3882 74.8588 32.3529 77.1165 30.8C76.2847 33.7765 74.5024 36.2353 72.0071 37.7882C74.2647 37.5294 76.5224 36.7529 78.6612 35.8471C77.2353 38.4353 75.3341 40.6353 73.0765 42.4471Z" fill="white"/>
</svg>
