<svg width="1440" height="305" viewBox="0 0 1440 305" fill="none" xmlns="http://www.w3.org/2000/svg">
<g clip-path="url(#clip0_79_203)">
<path d="M1584 28.8C1571.5 21.9 1552.7 14 1530.2 14.6C1478.2 16.2 1465.6 64 1415.8 72.3C1365.9 80.7 1358.5 43.9 1287.1 38.5C1260.3 36.5 1225.7 44.8 1156.4 61.4C1071.1 81.8 1064.8 90.3 1034.9 86.4C980.6 79.3 981.4 48.6 929.7 42.8C886.7 38 880.7 58.6 795.9 71.1C757.2 76.8 737.8 79.6 711.1 75.5C658.6 67.3 649.5 43.5 606.9 37.4C561.5 30.9 550 54.8 496.6 64.6C419.5 78.8 408.3 35.5 316.9 33C225.4 30.5 205.6 73 128 62.4C70.2 54.7 26.6 23.7 0 0.5C0 62.9 0 125.3 0 187.7C528 187.7 1056 187.7 1584 187.7C1584 134.7 1584 81.8 1584 28.8Z" fill="#005ECE"/>
<path d="M0 122.239C12.3323 118.54 29.9803 113.641 51.2429 108.643C58.6849 106.844 123.217 91.049 166.912 88.7498C239.205 84.9511 249.836 111.442 324.893 119.34C410.794 128.436 414.302 95.5475 513.811 96.3473C612.151 97.147 613.32 129.236 704.325 126.937C795.222 124.638 802.558 92.4486 893.243 94.7478C968.3 96.6471 971.702 118.94 1041.44 116.141C1123.52 112.942 1127.98 81.7522 1199.42 82.4519C1233.02 82.7518 1228.24 93.1483 1310.73 109.843C1373.99 122.638 1396.32 121.939 1417.9 113.541C1426.62 110.143 1457.23 98.2466 1470.74 70.256C1485.94 38.6666 1467.33 10.9759 1483.6 -0.420229C1493.81 -7.61781 1509.43 -2.71946 1528.36 3.37849C1561.74 14.1749 1582.68 30.3694 1605.43 47.2638C1623.19 60.4593 1649.77 79.8528 1684 103.345C1684 147.93 1684 192.515 1684 237C1122.67 237 561.333 237 0 237C0 198.813 0 160.526 0 122.239Z" fill="#008AFF"/>
<path d="M0 145.3C12.5 138.4 31.3 130.5 53.8 131.1C105.8 132.7 118.4 180.5 168.2 188.8C218.1 197.2 225.5 160.4 296.9 155C323.7 153 358.3 161.3 427.6 177.9C512.9 198.3 519.2 206.8 549.1 202.9C603.4 195.8 602.6 165.1 654.3 159.3C697.3 154.5 703.3 175.1 788.1 187.6C826.8 193.3 846.2 196.1 872.9 192C925.4 183.8 934.5 160 977.1 153.9C1022.5 147.4 1034 171.3 1087.4 181.1C1164.5 195.3 1175.7 152 1267.1 149.5C1358.6 147 1378.4 189.5 1456 178.9C1513.7 171 1557.4 140 1584 116.8C1584 179.2 1584 241.6 1584 304C1056 304 528 304 0 304C0 251.2 0 198.3 0 145.3Z" fill="#64B9FF"/>
<rect y="297" width="1440" height="2656" fill="url(#paint0_linear_79_203)"/>
</g>
<defs>
<linearGradient id="paint0_linear_79_203" x1="720" y1="297" x2="720" y2="2953" gradientUnits="userSpaceOnUse">
<stop stop-color="#64B9FF"/>
<stop offset="0.479167" stop-color="#3496DA"/>
<stop offset="0.479267" stop-color="#008AFF"/>
<stop offset="1" stop-color="#0070B1"/>
</linearGradient>
<clipPath id="clip0_79_203">
<rect width="1584" height="304.2" fill="white"/>
</clipPath>
</defs>
</svg>
